<svg width="314" height="348" viewBox="0 0 314 348" fill="none" xmlns="http://www.w3.org/2000/svg">
<path d="M137.344 160.64V163.44H141.104V165.216H137.344V168.176H141.584V170H135.104V158.816H141.584V160.64H137.344ZM140.016 156.512L136.336 158.192V156.592L140.016 154.688V156.512ZM146.228 162.976V167.264C146.228 167.563 146.297 167.781 146.436 167.92C146.585 168.048 146.83 168.112 147.172 168.112H148.212V170H146.804C144.916 170 143.972 169.083 143.972 167.248V162.976H142.916V161.136H143.972V158.944H146.228V161.136H148.212V162.976H146.228ZM149.247 165.536C149.247 164.64 149.423 163.845 149.775 163.152C150.137 162.459 150.623 161.925 151.231 161.552C151.849 161.179 152.537 160.992 153.295 160.992C153.956 160.992 154.532 161.125 155.023 161.392C155.524 161.659 155.924 161.995 156.223 162.4V161.136H158.479V170H156.223V168.704C155.935 169.12 155.535 169.467 155.023 169.744C154.521 170.011 153.94 170.144 153.279 170.144C152.532 170.144 151.849 169.952 151.231 169.568C150.623 169.184 150.137 168.645 149.775 167.952C149.423 167.248 149.247 166.443 149.247 165.536ZM156.223 165.568C156.223 165.024 156.116 164.56 155.903 164.176C155.689 163.781 155.401 163.483 155.039 163.28C154.676 163.067 154.287 162.96 153.871 162.96C153.455 162.96 153.071 163.061 152.719 163.264C152.367 163.467 152.079 163.765 151.855 164.16C151.641 164.544 151.535 165.003 151.535 165.536C151.535 166.069 151.641 166.539 151.855 166.944C152.079 167.339 152.367 167.643 152.719 167.856C153.081 168.069 153.465 168.176 153.871 168.176C154.287 168.176 154.676 168.075 155.039 167.872C155.401 167.659 155.689 167.36 155.903 166.976C156.116 166.581 156.223 166.112 156.223 165.568ZM162.907 162.416C163.195 162.011 163.589 161.675 164.091 161.408C164.603 161.131 165.184 160.992 165.835 160.992C166.592 160.992 167.275 161.179 167.883 161.552C168.501 161.925 168.987 162.459 169.339 163.152C169.701 163.835 169.883 164.629 169.883 165.536C169.883 166.443 169.701 167.248 169.339 167.952C168.987 168.645 168.501 169.184 167.883 169.568C167.275 169.952 166.592 170.144 165.835 170.144C165.184 170.144 164.608 170.011 164.107 169.744C163.616 169.477 163.216 169.141 162.907 168.736V174.224H160.667V161.136H162.907V162.416ZM167.595 165.536C167.595 165.003 167.483 164.544 167.259 164.16C167.045 163.765 166.757 163.467 166.395 163.264C166.043 163.061 165.659 162.96 165.243 162.96C164.837 162.96 164.453 163.067 164.091 163.28C163.739 163.483 163.451 163.781 163.227 164.176C163.013 164.571 162.907 165.035 162.907 165.568C162.907 166.101 163.013 166.565 163.227 166.96C163.451 167.355 163.739 167.659 164.091 167.872C164.453 168.075 164.837 168.176 165.243 168.176C165.659 168.176 166.043 168.069 166.395 167.856C166.757 167.643 167.045 167.339 167.259 166.944C167.483 166.549 167.595 166.08 167.595 165.536ZM179.75 165.376C179.75 165.696 179.729 165.984 179.686 166.24H173.206C173.26 166.88 173.484 167.381 173.878 167.744C174.273 168.107 174.758 168.288 175.334 168.288C176.166 168.288 176.758 167.931 177.11 167.216H179.526C179.27 168.069 178.78 168.773 178.054 169.328C177.329 169.872 176.438 170.144 175.382 170.144C174.529 170.144 173.761 169.957 173.078 169.584C172.406 169.2 171.878 168.661 171.494 167.968C171.121 167.275 170.934 166.475 170.934 165.568C170.934 164.651 171.121 163.845 171.494 163.152C171.868 162.459 172.39 161.925 173.062 161.552C173.734 161.179 174.508 160.992 175.382 160.992C176.225 160.992 176.977 161.173 177.638 161.536C178.31 161.899 178.828 162.416 179.19 163.088C179.564 163.749 179.75 164.512 179.75 165.376ZM177.43 164.736C177.42 164.16 177.212 163.701 176.806 163.36C176.401 163.008 175.905 162.832 175.318 162.832C174.764 162.832 174.294 163.003 173.91 163.344C173.537 163.675 173.308 164.139 173.222 164.736H177.43ZM184.67 160.4V158.336H188.526V170H186.222V160.4H184.67Z" fill="#777E91"/>
<path d="M80.9991 240.088C83.5658 240.088 85.3074 239.633 86.2241 238.724C87.1408 237.807 87.5991 236.7 87.5991 235.402C87.5991 234.141 87.2068 233.253 86.4221 232.74C85.6448 232.219 84.2001 231.743 82.0881 231.31C80.8121 231.046 79.7964 230.797 79.0411 230.562C78.2931 230.32 77.9191 229.854 77.9191 229.165C77.9191 228.652 78.1904 228.256 78.7331 227.977C79.2758 227.691 79.9944 227.548 80.8891 227.548C81.7398 227.548 82.4438 227.717 83.0011 228.054C83.5584 228.384 83.8371 229.169 83.8371 230.408H87.5771C87.5771 228.765 87.1078 227.46 86.1691 226.492C85.2378 225.517 83.4924 225.029 80.9331 225.029C78.3958 225.029 76.6541 225.476 75.7081 226.371C74.7694 227.266 74.3001 228.34 74.3001 229.594C74.3001 230.863 74.6998 231.776 75.4991 232.333C76.2984 232.89 77.7211 233.389 79.7671 233.829C81.0578 234.086 82.0698 234.335 82.8031 234.577C83.5438 234.819 83.9141 235.266 83.9141 235.919C83.9141 236.476 83.6428 236.891 83.1001 237.162C82.5648 237.433 81.8571 237.569 80.9771 237.569C80.0898 237.569 79.3784 237.4 78.8431 237.063C78.3078 236.718 78.0401 235.912 78.0401 234.643H74.2891C74.2891 236.381 74.7511 237.723 75.6751 238.669C76.5991 239.615 78.3738 240.088 80.9991 240.088ZM92.2463 225.15H89.5733V228.197L89.8593 227.625L89.0013 230.892H91.4103L92.2463 227.944V225.15ZM100.183 240.132V237.745C99.2371 237.745 98.4854 237.452 97.9281 236.865C97.3781 236.278 97.1031 235.149 97.1031 233.477C97.1031 231.768 97.3818 230.632 97.9391 230.067C98.4964 229.502 99.2224 229.22 100.117 229.22C101.026 229.22 101.734 229.48 102.24 230.001C102.753 230.522 103.01 231.409 103.01 232.663L103.142 232.333H96.7621V234.566H106.596C106.647 234.243 106.673 233.877 106.673 233.466C106.673 231.405 106.196 229.785 105.243 228.604C104.297 227.423 102.588 226.833 100.117 226.833C97.7044 226.833 96.0031 227.416 95.0131 228.582C94.0231 229.741 93.5281 231.372 93.5281 233.477C93.5281 235.53 94.0194 237.155 95.0021 238.35C95.9921 239.538 97.7191 240.132 100.183 240.132ZM100.183 237.745V240.132C101.488 240.132 102.519 240.007 103.274 239.758C104.037 239.501 104.686 239.109 105.221 238.581C105.764 238.053 106.116 237.36 106.277 236.502L102.966 235.567C102.812 236.036 102.625 236.443 102.405 236.788C102.192 237.133 101.906 237.378 101.547 237.525C101.188 237.672 100.733 237.745 100.183 237.745ZM108.489 240H112.185V229.165L111.349 226.965H108.489V240ZM116.992 240H120.688V233.037C120.688 231.189 120.365 229.697 119.72 228.56C119.075 227.416 117.912 226.844 116.233 226.844C114.458 226.844 113.021 227.405 111.921 228.527C110.821 229.642 110.271 230.775 110.271 231.926L112.064 232.762C112.064 231.765 112.332 230.954 112.867 230.331C113.41 229.7 114.066 229.385 114.836 229.385C115.569 229.385 116.112 229.642 116.464 230.155C116.816 230.668 116.992 231.647 116.992 233.092V240ZM131.2 233.389H134.896C134.896 231.145 134.588 229.495 133.972 228.439C133.356 227.376 132.186 226.844 130.463 226.844C128.872 226.844 127.585 227.266 126.602 228.109C125.619 228.945 125.128 229.979 125.128 231.211L126.547 232.058C126.547 231.361 126.774 230.745 127.229 230.21C127.684 229.667 128.3 229.396 129.077 229.396C129.744 229.396 130.265 229.653 130.639 230.166C131.013 230.672 131.2 231.746 131.2 233.389ZM122.862 240H126.558V229.22L125.722 226.965H122.862V240ZM143.173 240.132V237.745C142.227 237.745 141.476 237.452 140.918 236.865C140.368 236.278 140.093 235.149 140.093 233.477C140.093 231.768 140.372 230.632 140.929 230.067C141.487 229.502 142.213 229.22 143.107 229.22C144.017 229.22 144.724 229.48 145.23 230.001C145.744 230.522 146 231.409 146 232.663L146.132 232.333H139.752V234.566H149.586C149.638 234.243 149.663 233.877 149.663 233.466C149.663 231.405 149.187 229.785 148.233 228.604C147.287 227.423 145.579 226.833 143.107 226.833C140.695 226.833 138.993 227.416 138.003 228.582C137.013 229.741 136.518 231.372 136.518 233.477C136.518 235.53 137.01 237.155 137.992 238.35C138.982 239.538 140.709 240.132 143.173 240.132ZM143.173 237.745V240.132C144.479 240.132 145.509 240.007 146.264 239.758C147.027 239.501 147.676 239.109 148.211 238.581C148.754 238.053 149.106 237.36 149.267 236.502L145.956 235.567C145.802 236.036 145.615 236.443 145.395 236.788C145.183 237.133 144.897 237.378 144.537 237.525C144.178 237.672 143.723 237.745 143.173 237.745ZM157.507 245.159C158.857 245.159 159.975 244.987 160.862 244.642C161.75 244.305 162.498 243.707 163.106 242.849C163.715 241.998 164.019 240.814 164.019 239.296V226.965H161.302L160.301 229.528V239.681C160.301 241.023 160.056 241.881 159.564 242.255C159.073 242.629 158.428 242.816 157.628 242.816C157.152 242.816 156.723 242.743 156.341 242.596C155.967 242.457 155.667 242.222 155.439 241.892C155.219 241.562 155.087 241.144 155.043 240.638H151.435C151.582 242.295 152.235 243.461 153.393 244.136C154.552 244.818 155.923 245.159 157.507 245.159ZM156.22 240.088C157.782 240.088 159.124 239.732 160.246 239.021C161.376 238.302 161.94 237.499 161.94 236.612L160.301 234.995C160.301 235.721 160.019 236.33 159.454 236.821C158.897 237.312 158.237 237.558 157.474 237.558C156.646 237.558 156.004 237.287 155.549 236.744C155.095 236.201 154.867 235.109 154.867 233.466C154.867 231.838 155.095 230.753 155.549 230.21C156.004 229.66 156.646 229.385 157.474 229.385C158.237 229.385 158.897 229.634 159.454 230.133C160.019 230.624 160.301 231.226 160.301 231.937L161.94 230.419C161.94 229.539 161.368 228.725 160.224 227.977C159.088 227.229 157.738 226.855 156.176 226.855C154.409 226.855 153.126 227.438 152.326 228.604C151.527 229.77 151.127 231.387 151.127 233.455C151.127 235.516 151.534 237.136 152.348 238.317C153.162 239.498 154.453 240.088 156.22 240.088ZM166.546 240H170.253V226.954H166.546V240ZM166.546 223.038V225.623H170.253V223.038H166.546ZM179.109 240.11C181.074 240.11 182.588 239.798 183.652 239.175C184.715 238.552 185.247 237.518 185.247 236.073C185.247 234.753 184.755 233.833 183.773 233.312C182.797 232.784 181.58 232.414 180.121 232.201C178.984 232.025 178.053 231.856 177.327 231.695C176.601 231.526 176.238 231.163 176.238 230.606C176.238 230.181 176.425 229.847 176.799 229.605C177.18 229.363 177.77 229.242 178.57 229.242C179.42 229.242 180.132 229.436 180.704 229.825C181.276 230.214 181.646 230.742 181.815 231.409L185.06 230.243C184.744 229.004 184.029 228.131 182.915 227.625C181.8 227.112 180.366 226.855 178.614 226.855C176.817 226.855 175.365 227.159 174.258 227.768C173.15 228.377 172.597 229.326 172.597 230.617C172.597 231.937 173.044 232.894 173.939 233.488C174.841 234.075 176.036 234.482 177.525 234.709C178.713 234.9 179.688 235.076 180.451 235.237C181.213 235.398 181.595 235.769 181.595 236.348C181.595 236.773 181.382 237.107 180.957 237.349C180.531 237.584 179.934 237.701 179.164 237.701C178.232 237.701 177.47 237.514 176.876 237.14C176.282 236.766 175.9 236.205 175.732 235.457L172.498 236.645C172.842 237.914 173.601 238.808 174.775 239.329C175.948 239.85 177.393 240.11 179.109 240.11ZM193.224 240.165C194.221 240.165 195.174 240.062 196.084 239.857V237.415C195.563 237.598 195.031 237.69 194.489 237.69C193.946 237.69 193.524 237.584 193.224 237.371C192.93 237.151 192.784 236.685 192.784 235.974V229.506H196.788V226.965H192.784V223.984H189.077V226.965H186.096V229.506H189.077V236.788C189.077 238.064 189.476 238.948 190.276 239.439C191.082 239.923 192.065 240.165 193.224 240.165ZM206.804 233.389H210.5C210.5 231.145 210.192 229.495 209.576 228.439C208.96 227.376 207.79 226.844 206.067 226.844C204.475 226.844 203.188 227.266 202.206 228.109C201.223 228.945 200.732 229.979 200.732 231.211L202.151 232.058C202.151 231.361 202.378 230.745 202.833 230.21C203.287 229.667 203.903 229.396 204.681 229.396C205.348 229.396 205.869 229.653 206.243 230.166C206.617 230.672 206.804 231.746 206.804 233.389ZM198.466 240H202.162V229.22L201.326 226.965H198.466V240ZM218.777 240.132V237.745C217.831 237.745 217.079 237.452 216.522 236.865C215.972 236.278 215.697 235.149 215.697 233.477C215.697 231.768 215.976 230.632 216.533 230.067C217.09 229.502 217.816 229.22 218.711 229.22C219.62 229.22 220.328 229.48 220.834 230.001C221.347 230.522 221.604 231.409 221.604 232.663L221.736 232.333H215.356V234.566H225.19C225.241 234.243 225.267 233.877 225.267 233.466C225.267 231.405 224.79 229.785 223.837 228.604C222.891 227.423 221.182 226.833 218.711 226.833C216.298 226.833 214.597 227.416 213.607 228.582C212.617 229.741 212.122 231.372 212.122 233.477C212.122 235.53 212.613 237.155 213.596 238.35C214.586 239.538 216.313 240.132 218.777 240.132ZM218.777 237.745V240.132C220.082 240.132 221.113 240.007 221.868 239.758C222.631 239.501 223.28 239.109 223.815 238.581C224.358 238.053 224.71 237.36 224.871 236.502L221.56 235.567C221.406 236.036 221.219 236.443 220.999 236.788C220.786 237.133 220.5 237.378 220.141 237.525C219.782 237.672 219.327 237.745 218.777 237.745ZM235.421 233.389H239.117C239.117 231.145 238.809 229.495 238.193 228.439C237.577 227.376 236.407 226.844 234.684 226.844C233.092 226.844 231.805 227.266 230.823 228.109C229.84 228.945 229.349 229.979 229.349 231.211L230.768 232.058C230.768 231.361 230.995 230.745 231.45 230.21C231.904 229.667 232.52 229.396 233.298 229.396C233.965 229.396 234.486 229.653 234.86 230.166C235.234 230.672 235.421 231.746 235.421 233.389ZM227.083 240H230.779V229.22L229.943 226.965H227.083V240Z" fill="#204945"/>
<path d="M8.86007 294.758H11.7401C12.6521 294.758 13.4681 294.536 14.1881 294.092C14.9081 293.648 15.4781 293.048 15.8981 292.292C16.3301 291.524 16.5461 290.66 16.5461 289.7C16.5461 288.74 16.3301 287.882 15.8981 287.126C15.4781 286.358 14.9081 285.752 14.1881 285.308C13.4681 284.864 12.6521 284.642 11.7401 284.642H8.86007V294.758ZM7.47407 296V283.4H11.6501C12.5741 283.4 13.4201 283.562 14.1881 283.886C14.9681 284.198 15.6341 284.642 16.1861 285.218C16.7501 285.782 17.1821 286.448 17.4821 287.216C17.7941 287.972 17.9501 288.8 17.9501 289.7C17.9501 290.6 17.7941 291.434 17.4821 292.202C17.1821 292.958 16.7501 293.624 16.1861 294.2C15.6341 294.764 14.9681 295.208 14.1881 295.532C13.4201 295.844 12.5741 296 11.6501 296H7.47407ZM24.2778 296.18C23.4618 296.18 22.7238 295.982 22.0638 295.586C21.4038 295.178 20.8818 294.632 20.4978 293.948C20.1138 293.252 19.9218 292.472 19.9218 291.608C19.9218 290.744 20.1018 289.97 20.4618 289.286C20.8338 288.602 21.3318 288.062 21.9558 287.666C22.5798 287.27 23.2758 287.072 24.0438 287.072C24.8238 287.072 25.5138 287.27 26.1138 287.666C26.7258 288.05 27.2058 288.578 27.5538 289.25C27.9138 289.91 28.0938 290.66 28.0938 291.5V291.896H21.1998C21.2478 292.496 21.4098 293.036 21.6858 293.516C21.9738 293.984 22.3458 294.356 22.8018 294.632C23.2698 294.896 23.7798 295.028 24.3318 295.028C24.7878 295.028 25.2258 294.95 25.6458 294.794C26.0778 294.626 26.4438 294.404 26.7438 294.128L27.5718 295.01C27.0678 295.406 26.5458 295.7 26.0058 295.892C25.4658 296.084 24.8898 296.18 24.2778 296.18ZM21.2358 290.96H26.7978C26.7378 290.432 26.5758 289.964 26.3118 289.556C26.0598 289.136 25.7358 288.806 25.3398 288.566C24.9558 288.326 24.5238 288.206 24.0438 288.206C23.5638 288.206 23.1258 288.326 22.7298 288.566C22.3338 288.794 22.0038 289.118 21.7398 289.538C21.4878 289.946 21.3198 290.42 21.2358 290.96ZM22.9818 285.488L24.9978 283.292H26.7798L24.1878 285.488H22.9818ZM30.3373 296V287.216H31.6513V288.584C31.9873 288.08 32.3713 287.702 32.8033 287.45C33.2353 287.198 33.7213 287.072 34.2613 287.072C34.8853 287.072 35.4313 287.228 35.8993 287.54C36.3673 287.84 36.7213 288.254 36.9613 288.782C37.3093 288.218 37.7233 287.792 38.2033 287.504C38.6953 287.216 39.2593 287.072 39.8953 287.072C40.4833 287.072 40.9993 287.21 41.4433 287.486C41.8993 287.762 42.2533 288.146 42.5053 288.638C42.7573 289.118 42.8833 289.682 42.8833 290.33V296H41.5693V290.654C41.5693 289.886 41.3773 289.28 40.9933 288.836C40.6093 288.392 40.0813 288.17 39.4093 288.17C38.9533 288.17 38.5393 288.284 38.1673 288.512C37.8073 288.74 37.4893 289.088 37.2133 289.556C37.2373 289.676 37.2553 289.802 37.2673 289.934C37.2793 290.066 37.2853 290.198 37.2853 290.33V296H35.9713V290.654C35.9713 289.886 35.7733 289.28 35.3773 288.836C34.9933 288.392 34.4653 288.17 33.7933 288.17C32.8933 288.17 32.1793 288.602 31.6513 289.466V296H30.3373ZM48.2604 296.162C47.6364 296.162 47.0844 296.048 46.6044 295.82C46.1244 295.592 45.7464 295.28 45.4704 294.884C45.2064 294.476 45.0744 294.008 45.0744 293.48C45.0744 292.952 45.2124 292.496 45.4884 292.112C45.7644 291.716 46.1484 291.41 46.6404 291.194C47.1324 290.978 47.7084 290.87 48.3684 290.87C48.8724 290.87 49.3464 290.924 49.7904 291.032C50.2464 291.14 50.6664 291.314 51.0504 291.554V290.348C51.0504 289.628 50.8584 289.088 50.4744 288.728C50.0904 288.356 49.5264 288.17 48.7824 288.17C48.3744 288.17 47.9544 288.23 47.5224 288.35C47.1024 288.47 46.6344 288.662 46.1184 288.926L45.6324 287.918C46.8084 287.354 47.9124 287.072 48.9444 287.072C50.0364 287.072 50.8764 287.342 51.4644 287.882C52.0524 288.41 52.3464 289.172 52.3464 290.168V296H51.0504V294.974C50.6664 295.37 50.2404 295.67 49.7724 295.874C49.3044 296.066 48.8004 296.162 48.2604 296.162ZM46.3344 293.444C46.3344 293.96 46.5324 294.374 46.9284 294.686C47.3364 294.998 47.8704 295.154 48.5304 295.154C49.0224 295.154 49.4724 295.07 49.8804 294.902C50.3004 294.734 50.6904 294.482 51.0504 294.146V292.454C50.6784 292.238 50.2944 292.082 49.8984 291.986C49.5024 291.878 49.0584 291.824 48.5664 291.824C47.8944 291.824 47.3544 291.974 46.9464 292.274C46.5384 292.562 46.3344 292.952 46.3344 293.444ZM55.017 296V287.216H56.331V289.016C56.559 288.404 56.883 287.93 57.303 287.594C57.735 287.246 58.227 287.072 58.779 287.072C58.935 287.072 59.079 287.084 59.211 287.108C59.343 287.12 59.475 287.15 59.607 287.198V288.386C59.463 288.338 59.307 288.302 59.139 288.278C58.983 288.242 58.833 288.224 58.689 288.224C58.149 288.224 57.675 288.38 57.267 288.692C56.871 289.004 56.559 289.442 56.331 290.006V296H55.017ZM61.3451 296V287.216H62.6591V289.016C62.8871 288.404 63.2111 287.93 63.6311 287.594C64.0631 287.246 64.5551 287.072 65.1071 287.072C65.2631 287.072 65.4071 287.084 65.5391 287.108C65.6711 287.12 65.8031 287.15 65.9351 287.198V288.386C65.7911 288.338 65.6351 288.302 65.4671 288.278C65.3111 288.242 65.1611 288.224 65.0171 288.224C64.4771 288.224 64.0031 288.38 63.5951 288.692C63.1991 289.004 62.8871 289.442 62.6591 290.006V296H61.3451ZM71.0883 296.18C70.2723 296.18 69.5343 295.982 68.8743 295.586C68.2143 295.178 67.6923 294.632 67.3083 293.948C66.9243 293.252 66.7323 292.472 66.7323 291.608C66.7323 290.744 66.9123 289.97 67.2723 289.286C67.6443 288.602 68.1423 288.062 68.7663 287.666C69.3903 287.27 70.0863 287.072 70.8543 287.072C71.6343 287.072 72.3243 287.27 72.9243 287.666C73.5363 288.05 74.0163 288.578 74.3643 289.25C74.7243 289.91 74.9043 290.66 74.9043 291.5V291.896H68.0103C68.0583 292.496 68.2203 293.036 68.4963 293.516C68.7843 293.984 69.1563 294.356 69.6123 294.632C70.0803 294.896 70.5903 295.028 71.1423 295.028C71.5983 295.028 72.0363 294.95 72.4563 294.794C72.8883 294.626 73.2543 294.404 73.5543 294.128L74.3823 295.01C73.8783 295.406 73.3563 295.7 72.8163 295.892C72.2763 296.084 71.7003 296.18 71.0883 296.18ZM68.0463 290.96H73.6083C73.5483 290.432 73.3863 289.964 73.1223 289.556C72.8703 289.136 72.5463 288.806 72.1503 288.566C71.7663 288.326 71.3343 288.206 70.8543 288.206C70.3743 288.206 69.9363 288.326 69.5403 288.566C69.1443 288.794 68.8143 289.118 68.5503 289.538C68.2983 289.946 68.1303 290.42 68.0463 290.96ZM76.5359 296V294.956L81.5939 288.404L76.5899 288.422V287.216H83.1959V288.242L78.1199 294.83L83.2679 294.812V296H76.5359ZM92.3287 296.162C91.7047 296.162 91.1527 296.048 90.6727 295.82C90.1927 295.592 89.8147 295.28 89.5387 294.884C89.2747 294.476 89.1427 294.008 89.1427 293.48C89.1427 292.952 89.2807 292.496 89.5567 292.112C89.8327 291.716 90.2167 291.41 90.7087 291.194C91.2007 290.978 91.7767 290.87 92.4367 290.87C92.9407 290.87 93.4147 290.924 93.8587 291.032C94.3147 291.14 94.7347 291.314 95.1187 291.554V290.348C95.1187 289.628 94.9267 289.088 94.5427 288.728C94.1587 288.356 93.5947 288.17 92.8507 288.17C92.4427 288.17 92.0227 288.23 91.5907 288.35C91.1707 288.47 90.7027 288.662 90.1867 288.926L89.7007 287.918C90.8767 287.354 91.9807 287.072 93.0127 287.072C94.1047 287.072 94.9447 287.342 95.5327 287.882C96.1207 288.41 96.4147 289.172 96.4147 290.168V296H95.1187V294.974C94.7347 295.37 94.3087 295.67 93.8407 295.874C93.3727 296.066 92.8687 296.162 92.3287 296.162ZM90.4027 293.444C90.4027 293.96 90.6007 294.374 90.9967 294.686C91.4047 294.998 91.9387 295.154 92.5987 295.154C93.0907 295.154 93.5407 295.07 93.9487 294.902C94.3687 294.734 94.7587 294.482 95.1187 294.146V292.454C94.7467 292.238 94.3627 292.082 93.9667 291.986C93.5707 291.878 93.1267 291.824 92.6347 291.824C91.9627 291.824 91.4227 291.974 91.0147 292.274C90.6067 292.562 90.4027 292.952 90.4027 293.444ZM101.254 296L97.6538 287.216H99.0758L101.92 294.362L104.728 287.216H106.132L102.514 296H101.254ZM111.448 296.18C110.632 296.18 109.894 295.982 109.234 295.586C108.574 295.178 108.052 294.632 107.668 293.948C107.284 293.252 107.092 292.472 107.092 291.608C107.092 290.744 107.272 289.97 107.632 289.286C108.004 288.602 108.502 288.062 109.126 287.666C109.75 287.27 110.446 287.072 111.214 287.072C111.994 287.072 112.684 287.27 113.284 287.666C113.896 288.05 114.376 288.578 114.724 289.25C115.084 289.91 115.264 290.66 115.264 291.5V291.896H108.37C108.418 292.496 108.58 293.036 108.856 293.516C109.144 293.984 109.516 294.356 109.972 294.632C110.44 294.896 110.95 295.028 111.502 295.028C111.958 295.028 112.396 294.95 112.816 294.794C113.248 294.626 113.614 294.404 113.914 294.128L114.742 295.01C114.238 295.406 113.716 295.7 113.176 295.892C112.636 296.084 112.06 296.18 111.448 296.18ZM108.406 290.96H113.968C113.908 290.432 113.746 289.964 113.482 289.556C113.23 289.136 112.906 288.806 112.51 288.566C112.126 288.326 111.694 288.206 111.214 288.206C110.734 288.206 110.296 288.326 109.9 288.566C109.504 288.794 109.174 289.118 108.91 289.538C108.658 289.946 108.49 290.42 108.406 290.96ZM121.449 296.144C120.633 296.144 119.895 295.946 119.235 295.55C118.587 295.142 118.071 294.596 117.687 293.912C117.303 293.216 117.111 292.448 117.111 291.608C117.111 290.756 117.303 289.988 117.687 289.304C118.071 288.62 118.587 288.08 119.235 287.684C119.895 287.276 120.633 287.072 121.449 287.072C122.097 287.072 122.715 287.192 123.303 287.432C123.891 287.672 124.401 288.008 124.833 288.44L123.987 289.358C123.675 289.01 123.297 288.74 122.853 288.548C122.409 288.356 121.959 288.26 121.503 288.26C120.927 288.26 120.405 288.41 119.937 288.71C119.481 289.01 119.115 289.412 118.839 289.916C118.563 290.42 118.425 290.984 118.425 291.608C118.425 292.232 118.563 292.796 118.839 293.3C119.115 293.804 119.481 294.206 119.937 294.506C120.405 294.806 120.927 294.956 121.503 294.956C121.959 294.956 122.409 294.86 122.853 294.668C123.297 294.464 123.675 294.194 123.987 293.858L124.833 294.776C124.401 295.208 123.891 295.544 123.303 295.784C122.715 296.024 122.097 296.144 121.449 296.144ZM133.387 296L129.787 287.216H131.209L134.053 294.362L136.861 287.216H138.265L134.647 296H133.387ZM143.509 296.144C142.693 296.144 141.961 295.946 141.313 295.55C140.665 295.154 140.155 294.614 139.783 293.93C139.411 293.246 139.225 292.472 139.225 291.608C139.225 290.744 139.411 289.97 139.783 289.286C140.155 288.602 140.665 288.062 141.313 287.666C141.961 287.27 142.693 287.072 143.509 287.072C144.313 287.072 145.033 287.27 145.669 287.666C146.317 288.062 146.827 288.602 147.199 289.286C147.571 289.97 147.757 290.744 147.757 291.608C147.757 292.472 147.571 293.246 147.199 293.93C146.827 294.614 146.317 295.154 145.669 295.55C145.033 295.946 144.313 296.144 143.509 296.144ZM143.491 294.992C144.067 294.992 144.577 294.848 145.021 294.56C145.465 294.26 145.813 293.852 146.065 293.336C146.329 292.82 146.461 292.244 146.461 291.608C146.461 290.96 146.329 290.384 146.065 289.88C145.813 289.364 145.465 288.962 145.021 288.674C144.577 288.374 144.067 288.224 143.491 288.224C142.915 288.224 142.405 288.374 141.961 288.674C141.517 288.962 141.163 289.364 140.899 289.88C140.647 290.384 140.521 290.96 140.521 291.608C140.521 292.244 140.647 292.82 140.899 293.336C141.163 293.852 141.517 294.26 141.961 294.56C142.405 294.848 142.915 294.992 143.491 294.992ZM152.865 296.18C152.109 296.18 151.533 296 151.137 295.64C150.753 295.268 150.561 294.734 150.561 294.038V288.296H148.743V287.216H150.561V284.804L151.875 284.498V287.216H154.395V288.296H151.875V293.696C151.875 294.164 151.971 294.5 152.163 294.704C152.367 294.908 152.697 295.01 153.153 295.01C153.381 295.01 153.585 294.992 153.765 294.956C153.945 294.92 154.155 294.86 154.395 294.776V295.946C154.155 296.03 153.903 296.09 153.639 296.126C153.375 296.162 153.117 296.18 152.865 296.18ZM156.32 296V287.216H157.634V289.016C157.862 288.404 158.186 287.93 158.606 287.594C159.038 287.246 159.53 287.072 160.082 287.072C160.238 287.072 160.382 287.084 160.514 287.108C160.646 287.12 160.778 287.15 160.91 287.198V288.386C160.766 288.338 160.61 288.302 160.442 288.278C160.286 288.242 160.136 288.224 159.992 288.224C159.452 288.224 158.978 288.38 158.57 288.692C158.174 289.004 157.862 289.442 157.634 290.006V296H156.32ZM166.063 296.18C165.247 296.18 164.509 295.982 163.849 295.586C163.189 295.178 162.667 294.632 162.283 293.948C161.899 293.252 161.707 292.472 161.707 291.608C161.707 290.744 161.887 289.97 162.247 289.286C162.619 288.602 163.117 288.062 163.741 287.666C164.365 287.27 165.061 287.072 165.829 287.072C166.609 287.072 167.299 287.27 167.899 287.666C168.511 288.05 168.991 288.578 169.339 289.25C169.699 289.91 169.879 290.66 169.879 291.5V291.896H162.985C163.033 292.496 163.195 293.036 163.471 293.516C163.759 293.984 164.131 294.356 164.587 294.632C165.055 294.896 165.565 295.028 166.117 295.028C166.573 295.028 167.011 294.95 167.431 294.794C167.863 294.626 168.229 294.404 168.529 294.128L169.357 295.01C168.853 295.406 168.331 295.7 167.791 295.892C167.251 296.084 166.675 296.18 166.063 296.18ZM163.021 290.96H168.583C168.523 290.432 168.361 289.964 168.097 289.556C167.845 289.136 167.521 288.806 167.125 288.566C166.741 288.326 166.309 288.206 165.829 288.206C165.349 288.206 164.911 288.326 164.515 288.566C164.119 288.794 163.789 289.118 163.525 289.538C163.273 289.946 163.105 290.42 163.021 290.96ZM176.306 296V287.216H177.62V296H176.306ZM176.972 285.038C176.708 285.038 176.48 284.948 176.288 284.768C176.108 284.576 176.018 284.354 176.018 284.102C176.018 283.85 176.108 283.634 176.288 283.454C176.48 283.262 176.708 283.166 176.972 283.166C177.236 283.166 177.458 283.262 177.638 283.454C177.83 283.634 177.926 283.85 177.926 284.102C177.926 284.354 177.83 284.576 177.638 284.768C177.458 284.948 177.236 285.038 176.972 285.038ZM180.314 296V287.216H181.628V288.638C181.964 288.11 182.366 287.72 182.834 287.468C183.302 287.204 183.83 287.072 184.418 287.072C185.054 287.072 185.606 287.21 186.074 287.486C186.554 287.75 186.926 288.128 187.19 288.62C187.466 289.1 187.604 289.664 187.604 290.312V296H186.29V290.69C186.29 289.91 186.074 289.298 185.642 288.854C185.222 288.398 184.652 288.17 183.932 288.17C183.452 288.17 183.014 288.284 182.618 288.512C182.222 288.74 181.892 289.076 181.628 289.52V296H180.314ZM192.964 296.18C192.244 296.18 191.578 296.072 190.966 295.856C190.354 295.628 189.832 295.304 189.4 294.884L190.102 294.02C190.63 294.404 191.116 294.686 191.56 294.866C192.004 295.034 192.46 295.118 192.928 295.118C193.564 295.118 194.092 294.968 194.512 294.668C194.932 294.368 195.142 293.984 195.142 293.516C195.142 293.156 195.016 292.874 194.764 292.67C194.524 292.466 194.122 292.31 193.558 292.202L192.118 291.95C191.266 291.794 190.636 291.53 190.228 291.158C189.832 290.786 189.634 290.282 189.634 289.646C189.634 289.142 189.766 288.698 190.03 288.314C190.306 287.93 190.684 287.63 191.164 287.414C191.644 287.186 192.19 287.072 192.802 287.072C193.402 287.072 193.972 287.162 194.512 287.342C195.052 287.51 195.598 287.786 196.15 288.17L195.502 289.088C195.046 288.764 194.59 288.53 194.134 288.386C193.678 288.23 193.216 288.152 192.748 288.152C192.172 288.152 191.71 288.278 191.362 288.53C191.014 288.782 190.84 289.124 190.84 289.556C190.84 289.916 190.948 290.192 191.164 290.384C191.392 290.576 191.788 290.72 192.352 290.816L193.828 291.086C194.716 291.242 195.364 291.512 195.772 291.896C196.18 292.28 196.384 292.796 196.384 293.444C196.384 293.96 196.234 294.428 195.934 294.848C195.634 295.256 195.226 295.58 194.71 295.82C194.194 296.06 193.612 296.18 192.964 296.18ZM202.414 296.144C201.598 296.144 200.86 295.946 200.2 295.55C199.552 295.142 199.036 294.596 198.652 293.912C198.268 293.216 198.076 292.448 198.076 291.608C198.076 290.756 198.268 289.988 198.652 289.304C199.036 288.62 199.552 288.08 200.2 287.684C200.86 287.276 201.598 287.072 202.414 287.072C203.062 287.072 203.68 287.192 204.268 287.432C204.856 287.672 205.366 288.008 205.798 288.44L204.952 289.358C204.64 289.01 204.262 288.74 203.818 288.548C203.374 288.356 202.924 288.26 202.468 288.26C201.892 288.26 201.37 288.41 200.902 288.71C200.446 289.01 200.08 289.412 199.804 289.916C199.528 290.42 199.39 290.984 199.39 291.608C199.39 292.232 199.528 292.796 199.804 293.3C200.08 293.804 200.446 294.206 200.902 294.506C201.37 294.806 201.892 294.956 202.468 294.956C202.924 294.956 203.374 294.86 203.818 294.668C204.262 294.464 204.64 294.194 204.952 293.858L205.798 294.776C205.366 295.208 204.856 295.544 204.268 295.784C203.68 296.024 203.062 296.144 202.414 296.144ZM207.63 296V287.216H208.944V289.016C209.172 288.404 209.496 287.93 209.916 287.594C210.348 287.246 210.84 287.072 211.392 287.072C211.548 287.072 211.692 287.084 211.824 287.108C211.956 287.12 212.088 287.15 212.22 287.198V288.386C212.076 288.338 211.92 288.302 211.752 288.278C211.596 288.242 211.446 288.224 211.302 288.224C210.762 288.224 210.288 288.38 209.88 288.692C209.484 289.004 209.172 289.442 208.944 290.006V296H207.63ZM213.94 296V287.216H215.254V296H213.94ZM214.606 285.038C214.342 285.038 214.114 284.948 213.922 284.768C213.742 284.576 213.652 284.354 213.652 284.102C213.652 283.85 213.742 283.634 213.922 283.454C214.114 283.262 214.342 283.166 214.606 283.166C214.87 283.166 215.092 283.262 215.272 283.454C215.464 283.634 215.56 283.85 215.56 284.102C215.56 284.354 215.464 284.576 215.272 284.768C215.092 284.948 214.87 285.038 214.606 285.038ZM217.949 299.762V287.216H219.245V288.476C219.581 288.032 219.989 287.696 220.469 287.468C220.961 287.228 221.501 287.108 222.089 287.108C222.857 287.108 223.541 287.312 224.141 287.72C224.753 288.116 225.239 288.656 225.599 289.34C225.959 290.012 226.139 290.768 226.139 291.608C226.139 292.448 225.953 293.21 225.581 293.894C225.221 294.578 224.729 295.124 224.105 295.532C223.493 295.928 222.797 296.126 222.017 296.126C221.465 296.126 220.955 296.024 220.487 295.82C220.019 295.604 219.611 295.298 219.263 294.902V299.762H217.949ZM221.765 294.992C222.353 294.992 222.875 294.848 223.331 294.56C223.799 294.26 224.165 293.858 224.429 293.354C224.705 292.838 224.843 292.262 224.843 291.626C224.843 290.978 224.705 290.402 224.429 289.898C224.165 289.394 223.799 288.998 223.331 288.71C222.875 288.41 222.353 288.26 221.765 288.26C221.249 288.26 220.769 288.368 220.325 288.584C219.893 288.788 219.539 289.082 219.263 289.466V293.768C219.551 294.152 219.911 294.452 220.343 294.668C220.787 294.884 221.261 294.992 221.765 294.992ZM231.246 296.18C230.49 296.18 229.914 296 229.518 295.64C229.134 295.268 228.942 294.734 228.942 294.038V288.296H227.124V287.216H228.942V284.804L230.256 284.498V287.216H232.776V288.296H230.256V293.696C230.256 294.164 230.352 294.5 230.544 294.704C230.748 294.908 231.078 295.01 231.534 295.01C231.762 295.01 231.966 294.992 232.146 294.956C232.326 294.92 232.536 294.86 232.776 294.776V295.946C232.536 296.03 232.284 296.09 232.02 296.126C231.756 296.162 231.498 296.18 231.246 296.18ZM234.683 296V287.216H235.997V296H234.683ZM235.349 285.038C235.085 285.038 234.857 284.948 234.665 284.768C234.485 284.576 234.395 284.354 234.395 284.102C234.395 283.85 234.485 283.634 234.665 283.454C234.857 283.262 235.085 283.166 235.349 283.166C235.613 283.166 235.835 283.262 236.015 283.454C236.207 283.634 236.303 283.85 236.303 284.102C236.303 284.354 236.207 284.576 236.015 284.768C235.835 284.948 235.613 285.038 235.349 285.038ZM242.579 296.144C241.763 296.144 241.031 295.946 240.383 295.55C239.735 295.154 239.225 294.614 238.853 293.93C238.481 293.246 238.295 292.472 238.295 291.608C238.295 290.744 238.481 289.97 238.853 289.286C239.225 288.602 239.735 288.062 240.383 287.666C241.031 287.27 241.763 287.072 242.579 287.072C243.383 287.072 244.103 287.27 244.739 287.666C245.387 288.062 245.897 288.602 246.269 289.286C246.641 289.97 246.827 290.744 246.827 291.608C246.827 292.472 246.641 293.246 246.269 293.93C245.897 294.614 245.387 295.154 244.739 295.55C244.103 295.946 243.383 296.144 242.579 296.144ZM242.561 294.992C243.137 294.992 243.647 294.848 244.091 294.56C244.535 294.26 244.883 293.852 245.135 293.336C245.399 292.82 245.531 292.244 245.531 291.608C245.531 290.96 245.399 290.384 245.135 289.88C244.883 289.364 244.535 288.962 244.091 288.674C243.647 288.374 243.137 288.224 242.561 288.224C241.985 288.224 241.475 288.374 241.031 288.674C240.587 288.962 240.233 289.364 239.969 289.88C239.717 290.384 239.591 290.96 239.591 291.608C239.591 292.244 239.717 292.82 239.969 293.336C240.233 293.852 240.587 294.26 241.031 294.56C241.475 294.848 241.985 294.992 242.561 294.992ZM249.132 296V287.216H250.446V288.638C250.782 288.11 251.184 287.72 251.652 287.468C252.12 287.204 252.648 287.072 253.236 287.072C253.872 287.072 254.424 287.21 254.892 287.486C255.372 287.75 255.744 288.128 256.008 288.62C256.284 289.1 256.422 289.664 256.422 290.312V296H255.108V290.69C255.108 289.91 254.892 289.298 254.46 288.854C254.04 288.398 253.47 288.17 252.75 288.17C252.27 288.17 251.832 288.284 251.436 288.512C251.04 288.74 250.71 289.076 250.446 289.52V296H249.132ZM263.265 296V287.216H264.579V289.016C264.807 288.404 265.131 287.93 265.551 287.594C265.983 287.246 266.475 287.072 267.027 287.072C267.183 287.072 267.327 287.084 267.459 287.108C267.591 287.12 267.723 287.15 267.855 287.198V288.386C267.711 288.338 267.555 288.302 267.387 288.278C267.231 288.242 267.081 288.224 266.937 288.224C266.397 288.224 265.923 288.38 265.515 288.692C265.119 289.004 264.807 289.442 264.579 290.006V296H263.265ZM271.942 296.162C271.318 296.162 270.766 296.048 270.286 295.82C269.806 295.592 269.428 295.28 269.152 294.884C268.888 294.476 268.756 294.008 268.756 293.48C268.756 292.952 268.894 292.496 269.17 292.112C269.446 291.716 269.83 291.41 270.322 291.194C270.814 290.978 271.39 290.87 272.05 290.87C272.554 290.87 273.028 290.924 273.472 291.032C273.928 291.14 274.348 291.314 274.732 291.554V290.348C274.732 289.628 274.54 289.088 274.156 288.728C273.772 288.356 273.208 288.17 272.464 288.17C272.056 288.17 271.636 288.23 271.204 288.35C270.784 288.47 270.316 288.662 269.8 288.926L269.314 287.918C270.49 287.354 271.594 287.072 272.626 287.072C273.718 287.072 274.558 287.342 275.146 287.882C275.734 288.41 276.028 289.172 276.028 290.168V296H274.732V294.974C274.348 295.37 273.922 295.67 273.454 295.874C272.986 296.066 272.482 296.162 271.942 296.162ZM270.016 293.444C270.016 293.96 270.214 294.374 270.61 294.686C271.018 294.998 271.552 295.154 272.212 295.154C272.704 295.154 273.154 295.07 273.562 294.902C273.982 294.734 274.372 294.482 274.732 294.146V292.454C274.36 292.238 273.976 292.082 273.58 291.986C273.184 291.878 272.74 291.824 272.248 291.824C271.576 291.824 271.036 291.974 270.628 292.274C270.22 292.562 270.016 292.952 270.016 293.444ZM278.699 299.762V287.216H279.995V288.476C280.331 288.032 280.739 287.696 281.219 287.468C281.711 287.228 282.251 287.108 282.839 287.108C283.607 287.108 284.291 287.312 284.891 287.72C285.503 288.116 285.989 288.656 286.349 289.34C286.709 290.012 286.889 290.768 286.889 291.608C286.889 292.448 286.703 293.21 286.331 293.894C285.971 294.578 285.479 295.124 284.855 295.532C284.243 295.928 283.547 296.126 282.767 296.126C282.215 296.126 281.705 296.024 281.237 295.82C280.769 295.604 280.361 295.298 280.013 294.902V299.762H278.699ZM282.515 294.992C283.103 294.992 283.625 294.848 284.081 294.56C284.549 294.26 284.915 293.858 285.179 293.354C285.455 292.838 285.593 292.262 285.593 291.626C285.593 290.978 285.455 290.402 285.179 289.898C284.915 289.394 284.549 288.998 284.081 288.71C283.625 288.41 283.103 288.26 282.515 288.26C281.999 288.26 281.519 288.368 281.075 288.584C280.643 288.788 280.289 289.082 280.013 289.466V293.768C280.301 294.152 280.661 294.452 281.093 294.668C281.537 294.884 282.011 294.992 282.515 294.992ZM289.175 296V287.216H290.489V296H289.175ZM289.841 285.038C289.577 285.038 289.349 284.948 289.157 284.768C288.977 284.576 288.887 284.354 288.887 284.102C288.887 283.85 288.977 283.634 289.157 283.454C289.349 283.262 289.577 283.166 289.841 283.166C290.105 283.166 290.327 283.262 290.507 283.454C290.699 283.634 290.795 283.85 290.795 284.102C290.795 284.354 290.699 284.576 290.507 284.768C290.327 284.948 290.105 285.038 289.841 285.038ZM296.837 296.126C296.081 296.126 295.397 295.928 294.785 295.532C294.173 295.124 293.687 294.584 293.327 293.912C292.967 293.228 292.787 292.466 292.787 291.626C292.787 290.774 292.967 290.012 293.327 289.34C293.699 288.656 294.197 288.116 294.821 287.72C295.445 287.312 296.141 287.108 296.909 287.108C297.449 287.108 297.953 287.216 298.421 287.432C298.889 287.636 299.297 287.936 299.645 288.332V283.004L300.959 282.734V296H299.645V294.83C299.309 295.25 298.901 295.574 298.421 295.802C297.941 296.018 297.413 296.126 296.837 296.126ZM297.161 294.974C297.677 294.974 298.151 294.872 298.583 294.668C299.015 294.464 299.369 294.176 299.645 293.804V289.448C299.357 289.076 298.991 288.788 298.547 288.584C298.115 288.368 297.653 288.26 297.161 288.26C296.573 288.26 296.045 288.404 295.577 288.692C295.121 288.98 294.755 289.376 294.479 289.88C294.215 290.384 294.083 290.96 294.083 291.608C294.083 292.244 294.215 292.82 294.479 293.336C294.755 293.84 295.121 294.242 295.577 294.542C296.045 294.83 296.573 294.974 297.161 294.974ZM307.62 296.18C306.804 296.18 306.066 295.982 305.406 295.586C304.746 295.178 304.224 294.632 303.84 293.948C303.456 293.252 303.264 292.472 303.264 291.608C303.264 290.744 303.444 289.97 303.804 289.286C304.176 288.602 304.674 288.062 305.298 287.666C305.922 287.27 306.618 287.072 307.386 287.072C308.166 287.072 308.856 287.27 309.456 287.666C310.068 288.05 310.548 288.578 310.896 289.25C311.256 289.91 311.436 290.66 311.436 291.5V291.896H304.542C304.59 292.496 304.752 293.036 305.028 293.516C305.316 293.984 305.688 294.356 306.144 294.632C306.612 294.896 307.122 295.028 307.674 295.028C308.13 295.028 308.568 294.95 308.988 294.794C309.42 294.626 309.786 294.404 310.086 294.128L310.914 295.01C310.41 295.406 309.888 295.7 309.348 295.892C308.808 296.084 308.232 296.18 307.62 296.18ZM304.578 290.96H310.14C310.08 290.432 309.918 289.964 309.654 289.556C309.402 289.136 309.078 288.806 308.682 288.566C308.298 288.326 307.866 288.206 307.386 288.206C306.906 288.206 306.468 288.326 306.072 288.566C305.676 288.794 305.346 289.118 305.082 289.538C304.83 289.946 304.662 290.42 304.578 290.96Z" fill="#777E90"/>
<path d="M100 25C100 11.1929 111.193 0 125 0H190C203.807 0 215 11.1929 215 25V90C215 103.807 203.807 115 190 115H125C111.193 115 100 103.807 100 90V25Z" fill="#FDAD00"/>
<g clip-path="url(#clip0_161_52)">
<path d="M156.5 57.0827C160.516 57.0827 164.368 55.6033 167.208 52.9701C170.047 50.3368 171.643 46.7653 171.643 43.0413C171.643 39.3174 170.047 35.7459 167.208 33.1126C164.368 30.4794 160.516 29 156.5 29C152.484 29 148.632 30.4794 145.792 33.1126C142.953 35.7459 141.357 39.3174 141.357 43.0413C141.357 46.7653 142.953 50.3368 145.792 52.9701C148.632 55.6033 152.484 57.0827 156.5 57.0827ZM151.094 62.3482C139.441 62.3482 130 71.1021 130 81.9074C130 83.7064 131.573 85.1654 133.514 85.1654H179.486C181.427 85.1654 183 83.7064 183 81.9074C183 71.1021 173.559 62.3482 161.906 62.3482H151.094Z" fill="white"/>
</g>
<defs>
<clipPath id="clip0_161_52">
<rect width="53" height="56.1654" fill="white" transform="translate(130 29)"/>
</clipPath>
</defs>
</svg>
