<svg width="294" height="355" viewBox="0 0 294 355" fill="none" xmlns="http://www.w3.org/2000/svg">
<path d="M125.344 160.64V163.44H129.104V165.216H125.344V168.176H129.584V170H123.104V158.816H129.584V160.64H125.344ZM128.016 156.512L124.336 158.192V156.592L128.016 154.688V156.512ZM134.228 162.976V167.264C134.228 167.563 134.297 167.781 134.436 167.92C134.585 168.048 134.83 168.112 135.172 168.112H136.212V170H134.804C132.916 170 131.972 169.083 131.972 167.248V162.976H130.916V161.136H131.972V158.944H134.228V161.136H136.212V162.976H134.228ZM137.247 165.536C137.247 164.64 137.423 163.845 137.775 163.152C138.137 162.459 138.623 161.925 139.231 161.552C139.849 161.179 140.537 160.992 141.295 160.992C141.956 160.992 142.532 161.125 143.023 161.392C143.524 161.659 143.924 161.995 144.223 162.4V161.136H146.479V170H144.223V168.704C143.935 169.12 143.535 169.467 143.023 169.744C142.521 170.011 141.94 170.144 141.279 170.144C140.532 170.144 139.849 169.952 139.231 169.568C138.623 169.184 138.137 168.645 137.775 167.952C137.423 167.248 137.247 166.443 137.247 165.536ZM144.223 165.568C144.223 165.024 144.116 164.56 143.903 164.176C143.689 163.781 143.401 163.483 143.039 163.28C142.676 163.067 142.287 162.96 141.871 162.96C141.455 162.96 141.071 163.061 140.719 163.264C140.367 163.467 140.079 163.765 139.855 164.16C139.641 164.544 139.535 165.003 139.535 165.536C139.535 166.069 139.641 166.539 139.855 166.944C140.079 167.339 140.367 167.643 140.719 167.856C141.081 168.069 141.465 168.176 141.871 168.176C142.287 168.176 142.676 168.075 143.039 167.872C143.401 167.659 143.689 167.36 143.903 166.976C144.116 166.581 144.223 166.112 144.223 165.568ZM150.907 162.416C151.195 162.011 151.589 161.675 152.091 161.408C152.603 161.131 153.184 160.992 153.835 160.992C154.592 160.992 155.275 161.179 155.883 161.552C156.501 161.925 156.987 162.459 157.339 163.152C157.701 163.835 157.883 164.629 157.883 165.536C157.883 166.443 157.701 167.248 157.339 167.952C156.987 168.645 156.501 169.184 155.883 169.568C155.275 169.952 154.592 170.144 153.835 170.144C153.184 170.144 152.608 170.011 152.107 169.744C151.616 169.477 151.216 169.141 150.907 168.736V174.224H148.667V161.136H150.907V162.416ZM155.595 165.536C155.595 165.003 155.483 164.544 155.259 164.16C155.045 163.765 154.757 163.467 154.395 163.264C154.043 163.061 153.659 162.96 153.243 162.96C152.837 162.96 152.453 163.067 152.091 163.28C151.739 163.483 151.451 163.781 151.227 164.176C151.013 164.571 150.907 165.035 150.907 165.568C150.907 166.101 151.013 166.565 151.227 166.96C151.451 167.355 151.739 167.659 152.091 167.872C152.453 168.075 152.837 168.176 153.243 168.176C153.659 168.176 154.043 168.069 154.395 167.856C154.757 167.643 155.045 167.339 155.259 166.944C155.483 166.549 155.595 166.08 155.595 165.536ZM167.75 165.376C167.75 165.696 167.729 165.984 167.686 166.24H161.206C161.26 166.88 161.484 167.381 161.878 167.744C162.273 168.107 162.758 168.288 163.334 168.288C164.166 168.288 164.758 167.931 165.11 167.216H167.526C167.27 168.069 166.78 168.773 166.054 169.328C165.329 169.872 164.438 170.144 163.382 170.144C162.529 170.144 161.761 169.957 161.078 169.584C160.406 169.2 159.878 168.661 159.494 167.968C159.121 167.275 158.934 166.475 158.934 165.568C158.934 164.651 159.121 163.845 159.494 163.152C159.868 162.459 160.39 161.925 161.062 161.552C161.734 161.179 162.508 160.992 163.382 160.992C164.225 160.992 164.977 161.173 165.638 161.536C166.31 161.899 166.828 162.416 167.19 163.088C167.564 163.749 167.75 164.512 167.75 165.376ZM165.43 164.736C165.42 164.16 165.212 163.701 164.806 163.36C164.401 163.008 163.905 162.832 163.318 162.832C162.764 162.832 162.294 163.003 161.91 163.344C161.537 163.675 161.308 164.139 161.222 164.736H165.43ZM172.846 167.728V165.968L178.078 158.48H180.686V165.776H182.094V167.728H180.686V170H178.446V167.728H172.846ZM178.59 160.88L175.31 165.776H178.59V160.88Z" fill="#777E91"/>
<path d="M110.15 240.088C107.672 240.088 105.959 239.443 105.013 238.152C104.075 236.861 103.605 234.988 103.605 232.531C103.605 230.038 104.089 228.164 105.057 226.91C106.025 225.656 107.833 225.029 110.48 225.029C112.944 225.029 114.649 225.594 115.595 226.723C116.541 227.852 117.044 229.15 117.102 230.617H113.351C113.285 229.436 113.029 228.633 112.581 228.208C112.141 227.775 111.441 227.559 110.48 227.559C109.483 227.559 108.717 227.841 108.181 228.406C107.646 228.963 107.378 230.379 107.378 232.652C107.378 234.625 107.646 235.934 108.181 236.579C108.717 237.224 109.49 237.547 110.502 237.547C111.448 237.547 112.138 237.36 112.57 236.986C113.003 236.605 113.241 235.926 113.285 234.951L113.417 234.522H110.733V232.311H117.102V240H114.99L114.572 238.141C113.92 239.439 112.446 240.088 110.15 240.088ZM124.158 240.143C123.644 240.143 123.138 240.114 122.64 240.055C122.148 239.996 121.686 239.886 121.254 239.725C120.821 239.556 120.44 239.322 120.11 239.021C119.78 238.72 119.519 238.332 119.329 237.855C119.145 237.378 119.054 236.795 119.054 236.106C119.054 235.439 119.145 234.878 119.329 234.423C119.519 233.961 119.776 233.583 120.099 233.29C120.421 232.997 120.795 232.769 121.221 232.608C121.646 232.447 122.101 232.337 122.585 232.278C123.069 232.212 123.56 232.179 124.059 232.179H128.173V231.673C128.173 231.079 128.055 230.61 127.821 230.265C127.593 229.92 127.278 229.678 126.875 229.539C126.479 229.392 126.031 229.319 125.533 229.319C125.078 229.319 124.664 229.389 124.29 229.528C123.916 229.667 123.6 229.895 123.344 230.21C123.094 230.525 122.918 230.947 122.816 231.475L119.197 230.463C119.329 229.81 119.571 229.257 119.923 228.802C120.282 228.34 120.737 227.966 121.287 227.68C121.844 227.387 122.478 227.174 123.19 227.042C123.908 226.903 124.686 226.833 125.522 226.833C126.834 226.833 127.967 226.991 128.921 227.306C129.874 227.621 130.607 228.146 131.121 228.879C131.634 229.612 131.891 230.61 131.891 231.871V240H128.811L128.492 238.504C128.404 238.702 128.239 238.9 127.997 239.098C127.755 239.289 127.443 239.465 127.062 239.626C126.688 239.78 126.255 239.905 125.764 240C125.28 240.095 124.744 240.143 124.158 240.143ZM124.994 237.822C125.353 237.822 125.709 237.789 126.061 237.723C126.42 237.657 126.746 237.562 127.04 237.437C127.34 237.312 127.59 237.166 127.788 236.997C127.986 236.821 128.114 236.63 128.173 236.425L128.261 234.225H124.928C124.634 234.225 124.359 234.247 124.103 234.291C123.846 234.328 123.619 234.408 123.421 234.533C123.23 234.658 123.08 234.837 122.97 235.072C122.86 235.307 122.805 235.615 122.805 235.996C122.805 236.385 122.863 236.7 122.981 236.942C123.105 237.177 123.27 237.36 123.476 237.492C123.688 237.617 123.923 237.705 124.18 237.756C124.444 237.8 124.715 237.822 124.994 237.822ZM139.998 245.159C138.414 245.159 137.043 244.818 135.884 244.136C134.726 243.461 134.073 242.295 133.926 240.638H137.534C137.578 241.144 137.71 241.562 137.93 241.892C138.158 242.222 138.458 242.457 138.832 242.596C139.214 242.743 139.643 242.816 140.119 242.816C140.919 242.816 141.564 242.629 142.055 242.255C142.547 241.881 142.792 241.023 142.792 239.681V229.528L143.793 226.965H146.51V239.296C146.51 240.814 146.206 241.998 145.597 242.849C144.989 243.707 144.241 244.305 143.353 244.642C142.466 244.987 141.348 245.159 139.998 245.159ZM138.711 240.088C136.944 240.088 135.653 239.498 134.839 238.317C134.025 237.136 133.618 235.516 133.618 233.455C133.618 231.387 134.018 229.77 134.817 228.604C135.617 227.438 136.9 226.855 138.667 226.855C140.229 226.855 141.579 227.229 142.715 227.977C143.859 228.725 144.431 229.539 144.431 230.419L142.792 231.937C142.792 231.226 142.51 230.624 141.945 230.133C141.388 229.634 140.728 229.385 139.965 229.385C139.137 229.385 138.495 229.66 138.04 230.21C137.586 230.753 137.358 231.838 137.358 233.466C137.358 235.109 137.586 236.201 138.04 236.744C138.495 237.287 139.137 237.558 139.965 237.558C140.728 237.558 141.388 237.312 141.945 236.821C142.51 236.33 142.792 235.721 142.792 234.995L144.431 236.612C144.431 237.499 143.867 238.302 142.737 239.021C141.615 239.732 140.273 240.088 138.711 240.088ZM148.752 240V226.965H151.612L152.448 229.165V240H148.752ZM157.255 240V233.092C157.255 231.647 157.079 230.668 156.727 230.155C156.375 229.642 155.832 229.385 155.099 229.385C154.329 229.385 153.672 229.7 153.13 230.331C152.594 230.954 152.327 231.765 152.327 232.762L150.534 231.926C150.534 230.775 151.084 229.642 152.184 228.527C153.284 227.405 154.721 226.844 156.496 226.844C158.175 226.844 159.337 227.416 159.983 228.56C160.628 229.697 160.951 231.189 160.951 233.037V240H157.255ZM169.45 240.132C166.986 240.132 165.259 239.538 164.269 238.35C163.286 237.155 162.795 235.53 162.795 233.477C162.795 231.372 163.29 229.741 164.28 228.582C165.27 227.416 166.971 226.833 169.384 226.833C171.855 226.833 173.564 227.423 174.51 228.604C175.463 229.785 175.94 231.405 175.94 233.466C175.94 233.877 175.914 234.243 175.863 234.566H166.029V232.333H172.409L172.277 232.663C172.277 231.409 172.02 230.522 171.507 230.001C171.001 229.48 170.293 229.22 169.384 229.22C168.489 229.22 167.763 229.502 167.206 230.067C166.648 230.632 166.37 231.768 166.37 233.477C166.37 235.149 166.645 236.278 167.195 236.865C167.752 237.452 168.504 237.745 169.45 237.745V240.132ZM169.45 237.745C170 237.745 170.454 237.672 170.814 237.525C171.173 237.378 171.459 237.133 171.672 236.788C171.892 236.443 172.079 236.036 172.233 235.567L175.544 236.502C175.382 237.36 175.03 238.053 174.488 238.581C173.952 239.109 173.303 239.501 172.541 239.758C171.785 240.007 170.755 240.132 169.45 240.132V237.745ZM186.094 233.389C186.094 231.746 185.907 230.672 185.533 230.166C185.159 229.653 184.638 229.396 183.971 229.396C183.193 229.396 182.577 229.667 182.123 230.21C181.668 230.745 181.441 231.361 181.441 232.058L180.022 231.211C180.022 229.979 180.513 228.945 181.496 228.109C182.478 227.266 183.765 226.844 185.357 226.844C187.08 226.844 188.25 227.376 188.866 228.439C189.482 229.495 189.79 231.145 189.79 233.389H186.094ZM177.756 240V226.965H180.616L181.452 229.22V240H177.756Z" fill="#204945"/>
<path d="M11.6786 296L16.6646 283.4H18.3206L23.2346 296H21.7406L20.2466 292.04H14.6306L13.1366 296H11.6786ZM15.0626 290.942H19.8326L17.4386 284.66L15.0626 290.942ZM27.0251 296.18C26.2691 296.18 25.6931 296 25.2971 295.64C24.9131 295.268 24.7211 294.734 24.7211 294.038V288.296H22.9031V287.216H24.7211V284.804L26.0351 284.498V287.216H28.5551V288.296H26.0351V293.696C26.0351 294.164 26.1311 294.5 26.3231 294.704C26.5271 294.908 26.8571 295.01 27.3131 295.01C27.5411 295.01 27.7451 294.992 27.9251 294.956C28.1051 294.92 28.3151 294.86 28.5551 294.776V295.946C28.3151 296.03 28.0631 296.09 27.7991 296.126C27.5351 296.162 27.2771 296.18 27.0251 296.18ZM34.0037 296.18C33.2477 296.18 32.6717 296 32.2757 295.64C31.8917 295.268 31.6997 294.734 31.6997 294.038V288.296H29.8817V287.216H31.6997V284.804L33.0137 284.498V287.216H35.5337V288.296H33.0137V293.696C33.0137 294.164 33.1097 294.5 33.3017 294.704C33.5057 294.908 33.8357 295.01 34.2917 295.01C34.5197 295.01 34.7237 294.992 34.9037 294.956C35.0837 294.92 35.2937 294.86 35.5337 294.776V295.946C35.2937 296.03 35.0417 296.09 34.7777 296.126C34.5137 296.162 34.2557 296.18 34.0037 296.18ZM41.2426 296.18C40.4266 296.18 39.6886 295.982 39.0286 295.586C38.3686 295.178 37.8466 294.632 37.4626 293.948C37.0786 293.252 36.8866 292.472 36.8866 291.608C36.8866 290.744 37.0666 289.97 37.4266 289.286C37.7986 288.602 38.2966 288.062 38.9206 287.666C39.5446 287.27 40.2406 287.072 41.0086 287.072C41.7886 287.072 42.4786 287.27 43.0786 287.666C43.6906 288.05 44.1706 288.578 44.5186 289.25C44.8786 289.91 45.0586 290.66 45.0586 291.5V291.896H38.1646C38.2126 292.496 38.3746 293.036 38.6506 293.516C38.9386 293.984 39.3106 294.356 39.7666 294.632C40.2346 294.896 40.7446 295.028 41.2966 295.028C41.7526 295.028 42.1906 294.95 42.6106 294.794C43.0426 294.626 43.4086 294.404 43.7086 294.128L44.5366 295.01C44.0326 295.406 43.5106 295.7 42.9706 295.892C42.4306 296.084 41.8546 296.18 41.2426 296.18ZM38.2006 290.96H43.7626C43.7026 290.432 43.5406 289.964 43.2766 289.556C43.0246 289.136 42.7006 288.806 42.3046 288.566C41.9206 288.326 41.4886 288.206 41.0086 288.206C40.5286 288.206 40.0906 288.326 39.6946 288.566C39.2986 288.794 38.9686 289.118 38.7046 289.538C38.4526 289.946 38.2846 290.42 38.2006 290.96ZM47.2841 296V287.216H48.5981V296H47.2841ZM47.9501 285.038C47.6861 285.038 47.4581 284.948 47.2661 284.768C47.0861 284.576 46.9961 284.354 46.9961 284.102C46.9961 283.85 47.0861 283.634 47.2661 283.454C47.4581 283.262 47.6861 283.166 47.9501 283.166C48.2141 283.166 48.4361 283.262 48.6161 283.454C48.8081 283.634 48.9041 283.85 48.9041 284.102C48.9041 284.354 48.8081 284.576 48.6161 284.768C48.4361 284.948 48.2141 285.038 47.9501 285.038ZM55.3604 299.942C54.7724 299.942 54.1784 299.858 53.5784 299.69C52.9904 299.534 52.4444 299.312 51.9404 299.024L52.4984 298.016C53.0384 298.292 53.5304 298.496 53.9744 298.628C54.4184 298.76 54.8624 298.826 55.3064 298.826C56.1104 298.826 56.7164 298.634 57.1244 298.25C57.5444 297.866 57.7544 297.308 57.7544 296.576V294.812C57.4184 295.232 57.0104 295.556 56.5304 295.784C56.0504 296 55.5224 296.108 54.9464 296.108C54.1904 296.108 53.5064 295.91 52.8944 295.514C52.2824 295.106 51.7964 294.566 51.4364 293.894C51.0764 293.21 50.8964 292.448 50.8964 291.608C50.8964 290.768 51.0764 290.012 51.4364 289.34C51.8084 288.656 52.3064 288.116 52.9304 287.72C53.5544 287.312 54.2504 287.108 55.0184 287.108C55.5704 287.108 56.0804 287.216 56.5484 287.432C57.0164 287.636 57.4244 287.942 57.7724 288.35V287.216H59.0684V296.558C59.0684 297.65 58.7504 298.484 58.1144 299.06C57.4784 299.648 56.5604 299.942 55.3604 299.942ZM55.2704 294.974C55.7864 294.974 56.2604 294.872 56.6924 294.668C57.1244 294.452 57.4784 294.158 57.7544 293.786V289.448C57.4664 289.076 57.1004 288.788 56.6564 288.584C56.2244 288.368 55.7624 288.26 55.2704 288.26C54.6824 288.26 54.1544 288.404 53.6864 288.692C53.2304 288.98 52.8644 289.376 52.5884 289.88C52.3244 290.384 52.1924 290.96 52.1924 291.608C52.1924 292.244 52.3244 292.82 52.5884 293.336C52.8644 293.84 53.2304 294.242 53.6864 294.542C54.1544 294.83 54.6824 294.974 55.2704 294.974ZM61.7689 296V287.216H63.0829V288.638C63.4189 288.11 63.8209 287.72 64.2889 287.468C64.7569 287.204 65.2849 287.072 65.8729 287.072C66.5089 287.072 67.0609 287.21 67.5289 287.486C68.0089 287.75 68.3809 288.128 68.6449 288.62C68.9209 289.1 69.0589 289.664 69.0589 290.312V296H67.7449V290.69C67.7449 289.91 67.5289 289.298 67.0969 288.854C66.6769 288.398 66.1069 288.17 65.3869 288.17C64.9069 288.17 64.4689 288.284 64.0729 288.512C63.6769 288.74 63.3469 289.076 63.0829 289.52V296H61.7689ZM75.6606 296.18C74.8446 296.18 74.1066 295.982 73.4466 295.586C72.7866 295.178 72.2646 294.632 71.8806 293.948C71.4966 293.252 71.3046 292.472 71.3046 291.608C71.3046 290.744 71.4846 289.97 71.8446 289.286C72.2166 288.602 72.7146 288.062 73.3386 287.666C73.9626 287.27 74.6586 287.072 75.4266 287.072C76.2066 287.072 76.8966 287.27 77.4966 287.666C78.1086 288.05 78.5886 288.578 78.9366 289.25C79.2966 289.91 79.4766 290.66 79.4766 291.5V291.896H72.5826C72.6306 292.496 72.7926 293.036 73.0686 293.516C73.3566 293.984 73.7286 294.356 74.1846 294.632C74.6526 294.896 75.1626 295.028 75.7146 295.028C76.1706 295.028 76.6086 294.95 77.0286 294.794C77.4606 294.626 77.8266 294.404 78.1266 294.128L78.9546 295.01C78.4506 295.406 77.9286 295.7 77.3886 295.892C76.8486 296.084 76.2726 296.18 75.6606 296.18ZM72.6186 290.96H78.1806C78.1206 290.432 77.9586 289.964 77.6946 289.556C77.4426 289.136 77.1186 288.806 76.7226 288.566C76.3386 288.326 75.9066 288.206 75.4266 288.206C74.9466 288.206 74.5086 288.326 74.1126 288.566C73.7166 288.794 73.3866 289.118 73.1226 289.538C72.8706 289.946 72.7026 290.42 72.6186 290.96ZM81.1081 296V294.956L86.1661 288.404L81.1621 288.422V287.216H87.7681V288.242L82.6921 294.83L87.8401 294.812V296H81.1081ZM96.703 296L93.103 287.216H94.525L97.369 294.362L100.177 287.216H101.581L97.963 296H96.703ZM106.825 296.144C106.009 296.144 105.277 295.946 104.629 295.55C103.981 295.154 103.471 294.614 103.099 293.93C102.727 293.246 102.541 292.472 102.541 291.608C102.541 290.744 102.727 289.97 103.099 289.286C103.471 288.602 103.981 288.062 104.629 287.666C105.277 287.27 106.009 287.072 106.825 287.072C107.629 287.072 108.349 287.27 108.985 287.666C109.633 288.062 110.143 288.602 110.515 289.286C110.887 289.97 111.073 290.744 111.073 291.608C111.073 292.472 110.887 293.246 110.515 293.93C110.143 294.614 109.633 295.154 108.985 295.55C108.349 295.946 107.629 296.144 106.825 296.144ZM106.807 294.992C107.383 294.992 107.893 294.848 108.337 294.56C108.781 294.26 109.129 293.852 109.381 293.336C109.645 292.82 109.777 292.244 109.777 291.608C109.777 290.96 109.645 290.384 109.381 289.88C109.129 289.364 108.781 288.962 108.337 288.674C107.893 288.374 107.383 288.224 106.807 288.224C106.231 288.224 105.721 288.374 105.277 288.674C104.833 288.962 104.479 289.364 104.215 289.88C103.963 290.384 103.837 290.96 103.837 291.608C103.837 292.244 103.963 292.82 104.215 293.336C104.479 293.852 104.833 294.26 105.277 294.56C105.721 294.848 106.231 294.992 106.807 294.992ZM116.096 296.18C115.376 296.18 114.71 296.072 114.098 295.856C113.486 295.628 112.964 295.304 112.532 294.884L113.234 294.02C113.762 294.404 114.248 294.686 114.692 294.866C115.136 295.034 115.592 295.118 116.06 295.118C116.696 295.118 117.224 294.968 117.644 294.668C118.064 294.368 118.274 293.984 118.274 293.516C118.274 293.156 118.148 292.874 117.896 292.67C117.656 292.466 117.254 292.31 116.69 292.202L115.25 291.95C114.398 291.794 113.768 291.53 113.36 291.158C112.964 290.786 112.766 290.282 112.766 289.646C112.766 289.142 112.898 288.698 113.162 288.314C113.438 287.93 113.816 287.63 114.296 287.414C114.776 287.186 115.322 287.072 115.934 287.072C116.534 287.072 117.104 287.162 117.644 287.342C118.184 287.51 118.73 287.786 119.282 288.17L118.634 289.088C118.178 288.764 117.722 288.53 117.266 288.386C116.81 288.23 116.348 288.152 115.88 288.152C115.304 288.152 114.842 288.278 114.494 288.53C114.146 288.782 113.972 289.124 113.972 289.556C113.972 289.916 114.08 290.192 114.296 290.384C114.524 290.576 114.92 290.72 115.484 290.816L116.96 291.086C117.848 291.242 118.496 291.512 118.904 291.896C119.312 292.28 119.516 292.796 119.516 293.444C119.516 293.96 119.366 294.428 119.066 294.848C118.766 295.256 118.358 295.58 117.842 295.82C117.326 296.06 116.744 296.18 116.096 296.18ZM129.606 296.144C128.79 296.144 128.058 295.946 127.41 295.55C126.762 295.154 126.252 294.614 125.88 293.93C125.508 293.246 125.322 292.472 125.322 291.608C125.322 290.744 125.508 289.97 125.88 289.286C126.252 288.602 126.762 288.062 127.41 287.666C128.058 287.27 128.79 287.072 129.606 287.072C130.41 287.072 131.13 287.27 131.766 287.666C132.414 288.062 132.924 288.602 133.296 289.286C133.668 289.97 133.854 290.744 133.854 291.608C133.854 292.472 133.668 293.246 133.296 293.93C132.924 294.614 132.414 295.154 131.766 295.55C131.13 295.946 130.41 296.144 129.606 296.144ZM129.588 294.992C130.164 294.992 130.674 294.848 131.118 294.56C131.562 294.26 131.91 293.852 132.162 293.336C132.426 292.82 132.558 292.244 132.558 291.608C132.558 290.96 132.426 290.384 132.162 289.88C131.91 289.364 131.562 288.962 131.118 288.674C130.674 288.374 130.164 288.224 129.588 288.224C129.012 288.224 128.502 288.374 128.058 288.674C127.614 288.962 127.26 289.364 126.996 289.88C126.744 290.384 126.618 290.96 126.618 291.608C126.618 292.244 126.744 292.82 126.996 293.336C127.26 293.852 127.614 294.26 128.058 294.56C128.502 294.848 129.012 294.992 129.588 294.992ZM136.16 296V283.13L137.474 282.86V288.422C137.81 288.002 138.218 287.678 138.698 287.45C139.178 287.222 139.712 287.108 140.3 287.108C141.068 287.108 141.752 287.312 142.352 287.72C142.964 288.116 143.45 288.656 143.81 289.34C144.17 290.012 144.35 290.768 144.35 291.608C144.35 292.448 144.164 293.21 143.792 293.894C143.432 294.578 142.94 295.124 142.316 295.532C141.704 295.928 141.008 296.126 140.228 296.126C139.676 296.126 139.16 296.018 138.68 295.802C138.212 295.574 137.804 295.256 137.456 294.848V296H136.16ZM139.976 294.992C140.564 294.992 141.086 294.848 141.542 294.56C142.01 294.26 142.376 293.858 142.64 293.354C142.916 292.838 143.054 292.262 143.054 291.626C143.054 290.978 142.916 290.402 142.64 289.898C142.376 289.394 142.01 288.998 141.542 288.71C141.086 288.41 140.564 288.26 139.976 288.26C139.46 288.26 138.98 288.368 138.536 288.584C138.104 288.788 137.75 289.082 137.474 289.466V293.768C137.762 294.152 138.122 294.452 138.554 294.668C138.998 294.884 139.472 294.992 139.976 294.992ZM147.32 285.038C147.056 285.038 146.828 284.948 146.636 284.768C146.456 284.576 146.366 284.354 146.366 284.102C146.366 283.85 146.456 283.634 146.636 283.454C146.828 283.262 147.056 283.166 147.32 283.166C147.584 283.166 147.806 283.262 147.986 283.454C148.178 283.634 148.274 283.85 148.274 284.102C148.274 284.354 148.178 284.576 147.986 284.768C147.806 284.948 147.584 285.038 147.32 285.038ZM145.754 299.942C145.61 299.942 145.466 299.924 145.322 299.888C145.19 299.864 145.064 299.846 144.944 299.834V298.7C145.052 298.724 145.16 298.742 145.268 298.754C145.364 298.766 145.472 298.772 145.592 298.772C145.976 298.772 146.246 298.682 146.402 298.502C146.57 298.322 146.654 298.028 146.654 297.62V287.216H147.968V297.692C147.968 298.4 147.776 298.952 147.392 299.348C147.02 299.744 146.474 299.942 145.754 299.942ZM154.622 296.18C153.806 296.18 153.068 295.982 152.408 295.586C151.748 295.178 151.226 294.632 150.842 293.948C150.458 293.252 150.266 292.472 150.266 291.608C150.266 290.744 150.446 289.97 150.806 289.286C151.178 288.602 151.676 288.062 152.3 287.666C152.924 287.27 153.62 287.072 154.388 287.072C155.168 287.072 155.858 287.27 156.458 287.666C157.07 288.05 157.55 288.578 157.898 289.25C158.258 289.91 158.438 290.66 158.438 291.5V291.896H151.544C151.592 292.496 151.754 293.036 152.03 293.516C152.318 293.984 152.69 294.356 153.146 294.632C153.614 294.896 154.124 295.028 154.676 295.028C155.132 295.028 155.57 294.95 155.99 294.794C156.422 294.626 156.788 294.404 157.088 294.128L157.916 295.01C157.412 295.406 156.89 295.7 156.35 295.892C155.81 296.084 155.234 296.18 154.622 296.18ZM151.58 290.96H157.142C157.082 290.432 156.92 289.964 156.656 289.556C156.404 289.136 156.08 288.806 155.684 288.566C155.3 288.326 154.868 288.206 154.388 288.206C153.908 288.206 153.47 288.326 153.074 288.566C152.678 288.794 152.348 289.118 152.084 289.538C151.832 289.946 151.664 290.42 151.58 290.96ZM164.623 296.144C163.807 296.144 163.069 295.946 162.409 295.55C161.761 295.142 161.245 294.596 160.861 293.912C160.477 293.216 160.285 292.448 160.285 291.608C160.285 290.756 160.477 289.988 160.861 289.304C161.245 288.62 161.761 288.08 162.409 287.684C163.069 287.276 163.807 287.072 164.623 287.072C165.271 287.072 165.889 287.192 166.477 287.432C167.065 287.672 167.575 288.008 168.007 288.44L167.161 289.358C166.849 289.01 166.471 288.74 166.027 288.548C165.583 288.356 165.133 288.26 164.677 288.26C164.101 288.26 163.579 288.41 163.111 288.71C162.655 289.01 162.289 289.412 162.013 289.916C161.737 290.42 161.599 290.984 161.599 291.608C161.599 292.232 161.737 292.796 162.013 293.3C162.289 293.804 162.655 294.206 163.111 294.506C163.579 294.806 164.101 294.956 164.677 294.956C165.133 294.956 165.583 294.86 166.027 294.668C166.471 294.464 166.849 294.194 167.161 293.858L168.007 294.776C167.575 295.208 167.065 295.544 166.477 295.784C165.889 296.024 165.271 296.144 164.623 296.144ZM173.363 296.18C172.607 296.18 172.031 296 171.635 295.64C171.251 295.268 171.059 294.734 171.059 294.038V288.296H169.241V287.216H171.059V284.804L172.373 284.498V287.216H174.893V288.296H172.373V293.696C172.373 294.164 172.469 294.5 172.661 294.704C172.865 294.908 173.195 295.01 173.651 295.01C173.879 295.01 174.083 294.992 174.263 294.956C174.443 294.92 174.653 294.86 174.893 294.776V295.946C174.653 296.03 174.401 296.09 174.137 296.126C173.873 296.162 173.615 296.18 173.363 296.18ZM176.8 296V287.216H178.114V296H176.8ZM177.466 285.038C177.202 285.038 176.974 284.948 176.782 284.768C176.602 284.576 176.512 284.354 176.512 284.102C176.512 283.85 176.602 283.634 176.782 283.454C176.974 283.262 177.202 283.166 177.466 283.166C177.73 283.166 177.952 283.262 178.132 283.454C178.324 283.634 178.42 283.85 178.42 284.102C178.42 284.354 178.324 284.576 178.132 284.768C177.952 284.948 177.73 285.038 177.466 285.038ZM181.924 296V288.296H179.962V287.216H181.924V285.38C181.924 284.516 182.152 283.85 182.608 283.382C183.064 282.914 183.712 282.68 184.552 282.68C184.792 282.68 185.008 282.692 185.2 282.716C185.404 282.74 185.584 282.782 185.74 282.842V284.03C185.548 283.97 185.374 283.928 185.218 283.904C185.062 283.88 184.882 283.868 184.678 283.868C184.174 283.868 183.808 283.994 183.58 284.246C183.352 284.486 183.238 284.87 183.238 285.398V287.216H185.74V288.296H183.238V296H181.924ZM190.188 296.18C189.468 296.18 188.802 296.072 188.19 295.856C187.578 295.628 187.056 295.304 186.624 294.884L187.326 294.02C187.854 294.404 188.34 294.686 188.784 294.866C189.228 295.034 189.684 295.118 190.152 295.118C190.788 295.118 191.316 294.968 191.736 294.668C192.156 294.368 192.366 293.984 192.366 293.516C192.366 293.156 192.24 292.874 191.988 292.67C191.748 292.466 191.346 292.31 190.782 292.202L189.342 291.95C188.49 291.794 187.86 291.53 187.452 291.158C187.056 290.786 186.858 290.282 186.858 289.646C186.858 289.142 186.99 288.698 187.254 288.314C187.53 287.93 187.908 287.63 188.388 287.414C188.868 287.186 189.414 287.072 190.026 287.072C190.626 287.072 191.196 287.162 191.736 287.342C192.276 287.51 192.822 287.786 193.374 288.17L192.726 289.088C192.27 288.764 191.814 288.53 191.358 288.386C190.902 288.23 190.44 288.152 189.972 288.152C189.396 288.152 188.934 288.278 188.586 288.53C188.238 288.782 188.064 289.124 188.064 289.556C188.064 289.916 188.172 290.192 188.388 290.384C188.616 290.576 189.012 290.72 189.576 290.816L191.052 291.086C191.94 291.242 192.588 291.512 192.996 291.896C193.404 292.28 193.608 292.796 193.608 293.444C193.608 293.96 193.458 294.428 193.158 294.848C192.858 295.256 192.45 295.58 191.934 295.82C191.418 296.06 190.836 296.18 190.188 296.18ZM202.528 296.162C201.904 296.162 201.352 296.048 200.872 295.82C200.392 295.592 200.014 295.28 199.738 294.884C199.474 294.476 199.342 294.008 199.342 293.48C199.342 292.952 199.48 292.496 199.756 292.112C200.032 291.716 200.416 291.41 200.908 291.194C201.4 290.978 201.976 290.87 202.636 290.87C203.14 290.87 203.614 290.924 204.058 291.032C204.514 291.14 204.934 291.314 205.318 291.554V290.348C205.318 289.628 205.126 289.088 204.742 288.728C204.358 288.356 203.794 288.17 203.05 288.17C202.642 288.17 202.222 288.23 201.79 288.35C201.37 288.47 200.902 288.662 200.386 288.926L199.9 287.918C201.076 287.354 202.18 287.072 203.212 287.072C204.304 287.072 205.144 287.342 205.732 287.882C206.32 288.41 206.614 289.172 206.614 290.168V296H205.318V294.974C204.934 295.37 204.508 295.67 204.04 295.874C203.572 296.066 203.068 296.162 202.528 296.162ZM200.602 293.444C200.602 293.96 200.8 294.374 201.196 294.686C201.604 294.998 202.138 295.154 202.798 295.154C203.29 295.154 203.74 295.07 204.148 294.902C204.568 294.734 204.958 294.482 205.318 294.146V292.454C204.946 292.238 204.562 292.082 204.166 291.986C203.77 291.878 203.326 291.824 202.834 291.824C202.162 291.824 201.622 291.974 201.214 292.274C200.806 292.562 200.602 292.952 200.602 293.444ZM211.453 296L207.853 287.216H209.275L212.119 294.362L214.927 287.216H216.331L212.713 296H211.453ZM221.647 296.18C220.831 296.18 220.093 295.982 219.433 295.586C218.773 295.178 218.251 294.632 217.867 293.948C217.483 293.252 217.291 292.472 217.291 291.608C217.291 290.744 217.471 289.97 217.831 289.286C218.203 288.602 218.701 288.062 219.325 287.666C219.949 287.27 220.645 287.072 221.413 287.072C222.193 287.072 222.883 287.27 223.483 287.666C224.095 288.05 224.575 288.578 224.923 289.25C225.283 289.91 225.463 290.66 225.463 291.5V291.896H218.569C218.617 292.496 218.779 293.036 219.055 293.516C219.343 293.984 219.715 294.356 220.171 294.632C220.639 294.896 221.149 295.028 221.701 295.028C222.157 295.028 222.595 294.95 223.015 294.794C223.447 294.626 223.813 294.404 224.113 294.128L224.941 295.01C224.437 295.406 223.915 295.7 223.375 295.892C222.835 296.084 222.259 296.18 221.647 296.18ZM218.605 290.96H224.167C224.107 290.432 223.945 289.964 223.681 289.556C223.429 289.136 223.105 288.806 222.709 288.566C222.325 288.326 221.893 288.206 221.413 288.206C220.933 288.206 220.495 288.326 220.099 288.566C219.703 288.794 219.373 289.118 219.109 289.538C218.857 289.946 218.689 290.42 218.605 290.96ZM231.648 296.144C230.832 296.144 230.094 295.946 229.434 295.55C228.786 295.142 228.27 294.596 227.886 293.912C227.502 293.216 227.31 292.448 227.31 291.608C227.31 290.756 227.502 289.988 227.886 289.304C228.27 288.62 228.786 288.08 229.434 287.684C230.094 287.276 230.832 287.072 231.648 287.072C232.296 287.072 232.914 287.192 233.502 287.432C234.09 287.672 234.6 288.008 235.032 288.44L234.186 289.358C233.874 289.01 233.496 288.74 233.052 288.548C232.608 288.356 232.158 288.26 231.702 288.26C231.126 288.26 230.604 288.41 230.136 288.71C229.68 289.01 229.314 289.412 229.038 289.916C228.762 290.42 228.624 290.984 228.624 291.608C228.624 292.232 228.762 292.796 229.038 293.3C229.314 293.804 229.68 294.206 230.136 294.506C230.604 294.806 231.126 294.956 231.702 294.956C232.158 294.956 232.608 294.86 233.052 294.668C233.496 294.464 233.874 294.194 234.186 293.858L235.032 294.776C234.6 295.208 234.09 295.544 233.502 295.784C232.914 296.024 232.296 296.144 231.648 296.144ZM241.066 296V287.216H242.38V288.638C242.716 288.11 243.118 287.72 243.586 287.468C244.054 287.204 244.582 287.072 245.17 287.072C245.806 287.072 246.358 287.21 246.826 287.486C247.306 287.75 247.678 288.128 247.942 288.62C248.218 289.1 248.356 289.664 248.356 290.312V296H247.042V290.69C247.042 289.91 246.826 289.298 246.394 288.854C245.974 288.398 245.404 288.17 244.684 288.17C244.204 288.17 243.766 288.284 243.37 288.512C242.974 288.74 242.644 289.076 242.38 289.52V296H241.066ZM254.885 296.144C254.069 296.144 253.337 295.946 252.689 295.55C252.041 295.154 251.531 294.614 251.159 293.93C250.787 293.246 250.601 292.472 250.601 291.608C250.601 290.744 250.787 289.97 251.159 289.286C251.531 288.602 252.041 288.062 252.689 287.666C253.337 287.27 254.069 287.072 254.885 287.072C255.689 287.072 256.409 287.27 257.045 287.666C257.693 288.062 258.203 288.602 258.575 289.286C258.947 289.97 259.133 290.744 259.133 291.608C259.133 292.472 258.947 293.246 258.575 293.93C258.203 294.614 257.693 295.154 257.045 295.55C256.409 295.946 255.689 296.144 254.885 296.144ZM254.867 294.992C255.443 294.992 255.953 294.848 256.397 294.56C256.841 294.26 257.189 293.852 257.441 293.336C257.705 292.82 257.837 292.244 257.837 291.608C257.837 290.96 257.705 290.384 257.441 289.88C257.189 289.364 256.841 288.962 256.397 288.674C255.953 288.374 255.443 288.224 254.867 288.224C254.291 288.224 253.781 288.374 253.337 288.674C252.893 288.962 252.539 289.364 252.275 289.88C252.023 290.384 251.897 290.96 251.897 291.608C251.897 292.244 252.023 292.82 252.275 293.336C252.539 293.852 252.893 294.26 253.337 294.56C253.781 294.848 254.291 294.992 254.867 294.992ZM264.571 296.144C263.947 296.144 263.395 296.006 262.915 295.73C262.435 295.454 262.057 295.07 261.781 294.578C261.517 294.086 261.385 293.522 261.385 292.886V287.216H262.717V292.508C262.717 293.288 262.927 293.906 263.347 294.362C263.767 294.818 264.337 295.046 265.057 295.046C265.549 295.046 265.987 294.932 266.371 294.704C266.767 294.476 267.097 294.146 267.361 293.714V287.216H268.675V296H267.361V294.578C267.025 295.094 266.623 295.484 266.155 295.748C265.699 296.012 265.171 296.144 264.571 296.144ZM274.089 296.18C273.369 296.18 272.703 296.072 272.091 295.856C271.479 295.628 270.957 295.304 270.525 294.884L271.227 294.02C271.755 294.404 272.241 294.686 272.685 294.866C273.129 295.034 273.585 295.118 274.053 295.118C274.689 295.118 275.217 294.968 275.637 294.668C276.057 294.368 276.267 293.984 276.267 293.516C276.267 293.156 276.141 292.874 275.889 292.67C275.649 292.466 275.247 292.31 274.683 292.202L273.243 291.95C272.391 291.794 271.761 291.53 271.353 291.158C270.957 290.786 270.759 290.282 270.759 289.646C270.759 289.142 270.891 288.698 271.155 288.314C271.431 287.93 271.809 287.63 272.289 287.414C272.769 287.186 273.315 287.072 273.927 287.072C274.527 287.072 275.097 287.162 275.637 287.342C276.177 287.51 276.723 287.786 277.275 288.17L276.627 289.088C276.171 288.764 275.715 288.53 275.259 288.386C274.803 288.23 274.341 288.152 273.873 288.152C273.297 288.152 272.835 288.278 272.487 288.53C272.139 288.782 271.965 289.124 271.965 289.556C271.965 289.916 272.073 290.192 272.289 290.384C272.517 290.576 272.913 290.72 273.477 290.816L274.953 291.086C275.841 291.242 276.489 291.512 276.897 291.896C277.305 292.28 277.509 292.796 277.509 293.444C277.509 293.96 277.359 294.428 277.059 294.848C276.759 295.256 276.351 295.58 275.835 295.82C275.319 296.06 274.737 296.18 274.089 296.18ZM280.233 296.144C279.969 296.144 279.741 296.048 279.549 295.856C279.369 295.664 279.279 295.436 279.279 295.172C279.279 294.896 279.369 294.668 279.549 294.488C279.741 294.296 279.969 294.2 280.233 294.2C280.497 294.2 280.719 294.296 280.899 294.488C281.091 294.668 281.187 294.896 281.187 295.172C281.187 295.436 281.091 295.664 280.899 295.856C280.719 296.048 280.497 296.144 280.233 296.144Z" fill="#777E90"/>
<path d="M90 25C90 11.1929 101.193 0 115 0H180C193.807 0 205 11.1929 205 25V90C205 103.807 193.807 115 180 115H115C101.193 115 90 103.807 90 90V25Z" fill="#FDAD00"/>
<g clip-path="url(#clip0_161_55)">
<path d="M167.967 29.918C168.26 30.2207 168.484 30.5625 168.641 30.9238C168.797 31.2852 168.875 31.6855 168.875 32.1152V32.125V41.5C168.875 43.2285 167.479 44.625 165.75 44.625C164.021 44.625 162.625 43.2285 162.625 41.5V39.6738L152.332 49.957C151.18 51.1094 149.324 51.1875 148.084 50.123L139.188 42.4863L130.281 50.123C128.973 51.2461 127 51.0898 125.877 49.7812C124.754 48.4727 124.91 46.5 126.219 45.377L137.156 36.002C138.328 34.9961 140.057 34.9961 141.229 36.002L149.969 43.4922L158.201 35.25H156.375C154.646 35.25 153.25 33.8535 153.25 32.125C153.25 30.3965 154.646 29 156.375 29H165.75C166.609 29 167.391 29.3516 167.957 29.9082L167.967 29.918ZM122 58.6875C122 56.0996 124.1 54 126.688 54H167.312C169.9 54 172 56.0996 172 58.6875V74.3125C172 76.9004 169.9 79 167.312 79H126.688C124.1 79 122 76.9004 122 74.3125V58.6875ZM126.688 69.625V74.3125H131.375C131.375 71.7246 129.275 69.625 126.688 69.625ZM131.375 58.6875H126.688V63.375C129.275 63.375 131.375 61.2754 131.375 58.6875ZM167.312 69.625C164.725 69.625 162.625 71.7246 162.625 74.3125H167.312V69.625ZM162.625 58.6875C162.625 61.2754 164.725 63.375 167.312 63.375V58.6875H162.625ZM153.25 66.5C153.25 64.8424 152.592 63.2527 151.419 62.0806C150.247 60.9085 148.658 60.25 147 60.25C145.342 60.25 143.753 60.9085 142.581 62.0806C141.408 63.2527 140.75 64.8424 140.75 66.5C140.75 68.1576 141.408 69.7473 142.581 70.9194C143.753 72.0915 145.342 72.75 147 72.75C148.658 72.75 150.247 72.0915 151.419 70.9194C152.592 69.7473 153.25 68.1576 153.25 66.5Z" fill="white"/>
</g>
<defs>
<clipPath id="clip0_161_55">
<rect width="50" height="50" fill="white" transform="translate(122 29)"/>
</clipPath>
</defs>
</svg>
