<svg width="296" height="355" viewBox="0 0 296 355" fill="none" xmlns="http://www.w3.org/2000/svg">
<path d="M126.344 160.64V163.44H130.104V165.216H126.344V168.176H130.584V170H124.104V158.816H130.584V160.64H126.344ZM129.016 156.512L125.336 158.192V156.592L129.016 154.688V156.512ZM135.228 162.976V167.264C135.228 167.563 135.297 167.781 135.436 167.92C135.585 168.048 135.83 168.112 136.172 168.112H137.212V170H135.804C133.916 170 132.972 169.083 132.972 167.248V162.976H131.916V161.136H132.972V158.944H135.228V161.136H137.212V162.976H135.228ZM138.247 165.536C138.247 164.64 138.423 163.845 138.775 163.152C139.137 162.459 139.623 161.925 140.231 161.552C140.849 161.179 141.537 160.992 142.295 160.992C142.956 160.992 143.532 161.125 144.023 161.392C144.524 161.659 144.924 161.995 145.223 162.4V161.136H147.479V170H145.223V168.704C144.935 169.12 144.535 169.467 144.023 169.744C143.521 170.011 142.94 170.144 142.279 170.144C141.532 170.144 140.849 169.952 140.231 169.568C139.623 169.184 139.137 168.645 138.775 167.952C138.423 167.248 138.247 166.443 138.247 165.536ZM145.223 165.568C145.223 165.024 145.116 164.56 144.903 164.176C144.689 163.781 144.401 163.483 144.039 163.28C143.676 163.067 143.287 162.96 142.871 162.96C142.455 162.96 142.071 163.061 141.719 163.264C141.367 163.467 141.079 163.765 140.855 164.16C140.641 164.544 140.535 165.003 140.535 165.536C140.535 166.069 140.641 166.539 140.855 166.944C141.079 167.339 141.367 167.643 141.719 167.856C142.081 168.069 142.465 168.176 142.871 168.176C143.287 168.176 143.676 168.075 144.039 167.872C144.401 167.659 144.689 167.36 144.903 166.976C145.116 166.581 145.223 166.112 145.223 165.568ZM151.907 162.416C152.195 162.011 152.589 161.675 153.091 161.408C153.603 161.131 154.184 160.992 154.835 160.992C155.592 160.992 156.275 161.179 156.883 161.552C157.501 161.925 157.987 162.459 158.339 163.152C158.701 163.835 158.883 164.629 158.883 165.536C158.883 166.443 158.701 167.248 158.339 167.952C157.987 168.645 157.501 169.184 156.883 169.568C156.275 169.952 155.592 170.144 154.835 170.144C154.184 170.144 153.608 170.011 153.107 169.744C152.616 169.477 152.216 169.141 151.907 168.736V174.224H149.667V161.136H151.907V162.416ZM156.595 165.536C156.595 165.003 156.483 164.544 156.259 164.16C156.045 163.765 155.757 163.467 155.395 163.264C155.043 163.061 154.659 162.96 154.243 162.96C153.837 162.96 153.453 163.067 153.091 163.28C152.739 163.483 152.451 163.781 152.227 164.176C152.013 164.571 151.907 165.035 151.907 165.568C151.907 166.101 152.013 166.565 152.227 166.96C152.451 167.355 152.739 167.659 153.091 167.872C153.453 168.075 153.837 168.176 154.243 168.176C154.659 168.176 155.043 168.069 155.395 167.856C155.757 167.643 156.045 167.339 156.259 166.944C156.483 166.549 156.595 166.08 156.595 165.536ZM168.75 165.376C168.75 165.696 168.729 165.984 168.686 166.24H162.206C162.26 166.88 162.484 167.381 162.878 167.744C163.273 168.107 163.758 168.288 164.334 168.288C165.166 168.288 165.758 167.931 166.11 167.216H168.526C168.27 168.069 167.78 168.773 167.054 169.328C166.329 169.872 165.438 170.144 164.382 170.144C163.529 170.144 162.761 169.957 162.078 169.584C161.406 169.2 160.878 168.661 160.494 167.968C160.121 167.275 159.934 166.475 159.934 165.568C159.934 164.651 160.121 163.845 160.494 163.152C160.868 162.459 161.39 161.925 162.062 161.552C162.734 161.179 163.508 160.992 164.382 160.992C165.225 160.992 165.977 161.173 166.638 161.536C167.31 161.899 167.828 162.416 168.19 163.088C168.564 163.749 168.75 164.512 168.75 165.376ZM166.43 164.736C166.42 164.16 166.212 163.701 165.806 163.36C165.401 163.008 164.905 162.832 164.318 162.832C163.764 162.832 163.294 163.003 162.91 163.344C162.537 163.675 162.308 164.139 162.222 164.736H166.43ZM173.974 161.408C174.027 160.341 174.4 159.52 175.094 158.944C175.798 158.357 176.72 158.064 177.862 158.064C178.64 158.064 179.307 158.203 179.862 158.48C180.416 158.747 180.832 159.115 181.11 159.584C181.398 160.043 181.542 160.565 181.542 161.152C181.542 161.824 181.366 162.395 181.014 162.864C180.672 163.323 180.262 163.632 179.782 163.792V163.856C180.4 164.048 180.88 164.389 181.222 164.88C181.574 165.371 181.75 166 181.75 166.768C181.75 167.408 181.6 167.979 181.302 168.48C181.014 168.981 180.582 169.376 180.006 169.664C179.44 169.941 178.758 170.08 177.958 170.08C176.752 170.08 175.771 169.776 175.014 169.168C174.256 168.56 173.856 167.664 173.814 166.48H175.99C176.011 167.003 176.187 167.424 176.518 167.744C176.859 168.053 177.323 168.208 177.91 168.208C178.454 168.208 178.87 168.059 179.158 167.76C179.456 167.451 179.606 167.056 179.606 166.576C179.606 165.936 179.403 165.477 178.998 165.2C178.592 164.923 177.963 164.784 177.11 164.784H176.646V162.944H177.11C178.624 162.944 179.382 162.437 179.382 161.424C179.382 160.965 179.243 160.608 178.966 160.352C178.699 160.096 178.31 159.968 177.798 159.968C177.296 159.968 176.907 160.107 176.63 160.384C176.363 160.651 176.208 160.992 176.166 161.408H173.974Z" fill="#777E91"/>
<path d="M109.988 240H113.739V234.071H118.37C120.064 234.071 121.204 233.649 121.791 232.806C122.378 231.963 122.671 230.925 122.671 229.693C122.671 228.439 122.392 227.368 121.835 226.481C121.278 225.594 120.174 225.15 118.524 225.15H109.988V240ZM118.865 240H122.924L119.426 232.938L115.719 233.092L118.865 240ZM113.739 231.783V227.691H117.292C117.908 227.691 118.333 227.871 118.568 228.23C118.803 228.589 118.92 229.092 118.92 229.737C118.92 230.39 118.803 230.896 118.568 231.255C118.333 231.607 117.908 231.783 117.292 231.783H113.739ZM130.924 240.11C133.307 240.11 135.005 239.534 136.017 238.383C137.036 237.224 137.546 235.571 137.546 233.422C137.546 231.281 137.036 229.645 136.017 228.516C135.005 227.379 133.307 226.811 130.924 226.811C128.533 226.811 126.828 227.379 125.809 228.516C124.789 229.645 124.28 231.281 124.28 233.422C124.28 235.571 124.789 237.224 125.809 238.383C126.828 239.534 128.533 240.11 130.924 240.11ZM130.924 237.602C130.066 237.602 129.362 237.331 128.812 236.788C128.262 236.245 127.987 235.131 127.987 233.444C127.987 231.765 128.262 230.657 128.812 230.122C129.362 229.587 130.066 229.319 130.924 229.319C131.774 229.319 132.475 229.587 133.025 230.122C133.575 230.657 133.85 231.765 133.85 233.444C133.85 235.131 133.575 236.245 133.025 236.788C132.475 237.331 131.774 237.602 130.924 237.602ZM148.687 240H151.525V226.965H147.84V237.921L148.687 240ZM142.923 226.954H139.238V234.038C139.238 235.886 139.554 237.36 140.184 238.46C140.815 239.56 141.981 240.11 143.682 240.11C145.574 240.11 147.041 239.553 148.082 238.438C149.131 237.316 149.655 236.179 149.655 235.028L147.851 234.269C147.851 235.274 147.573 236.077 147.015 236.678C146.465 237.272 145.809 237.569 145.046 237.569C144.313 237.569 143.774 237.312 143.429 236.799C143.092 236.286 142.923 235.307 142.923 233.862V226.954ZM154.007 240H157.714V222.73H154.007V240ZM166.32 240.132V237.745C165.374 237.745 164.622 237.452 164.065 236.865C163.515 236.278 163.24 235.149 163.24 233.477C163.24 231.768 163.518 230.632 164.076 230.067C164.633 229.502 165.359 229.22 166.254 229.22C167.163 229.22 167.871 229.48 168.377 230.001C168.89 230.522 169.147 231.409 169.147 232.663L169.279 232.333H162.899V234.566H172.733C172.784 234.243 172.81 233.877 172.81 233.466C172.81 231.405 172.333 229.785 171.38 228.604C170.434 227.423 168.725 226.833 166.254 226.833C163.841 226.833 162.14 227.416 161.15 228.582C160.16 229.741 159.665 231.372 159.665 233.477C159.665 235.53 160.156 237.155 161.139 238.35C162.129 239.538 163.856 240.132 166.32 240.132ZM166.32 237.745V240.132C167.625 240.132 168.655 240.007 169.411 239.758C170.173 239.501 170.822 239.109 171.358 238.581C171.9 238.053 172.252 237.36 172.414 236.502L169.103 235.567C168.949 236.036 168.762 236.443 168.542 236.788C168.329 237.133 168.043 237.378 167.684 237.525C167.324 237.672 166.87 237.745 166.32 237.745ZM182.964 233.389H186.66C186.66 231.145 186.352 229.495 185.736 228.439C185.12 227.376 183.95 226.844 182.227 226.844C180.635 226.844 179.348 227.266 178.366 228.109C177.383 228.945 176.892 229.979 176.892 231.211L178.311 232.058C178.311 231.361 178.538 230.745 178.993 230.21C179.447 229.667 180.063 229.396 180.841 229.396C181.508 229.396 182.029 229.653 182.403 230.166C182.777 230.672 182.964 231.746 182.964 233.389ZM174.626 240H178.322V229.22L177.486 226.965H174.626V240Z" fill="#204945"/>
<path d="M15.9116 296V283.4H17.8376L22.0496 292.364L26.2616 283.4H28.1876V296H26.8736V285.038L22.0496 295.1L17.2076 285.002V296H15.9116ZM35.1059 296.18C34.2899 296.18 33.5519 295.982 32.8919 295.586C32.2319 295.178 31.7099 294.632 31.3259 293.948C30.9419 293.252 30.7499 292.472 30.7499 291.608C30.7499 290.744 30.9299 289.97 31.2899 289.286C31.6619 288.602 32.1599 288.062 32.7839 287.666C33.4079 287.27 34.1039 287.072 34.8719 287.072C35.6519 287.072 36.3419 287.27 36.9419 287.666C37.5539 288.05 38.0339 288.578 38.3819 289.25C38.7419 289.91 38.9219 290.66 38.9219 291.5V291.896H32.0279C32.0759 292.496 32.2379 293.036 32.5139 293.516C32.8019 293.984 33.1739 294.356 33.6299 294.632C34.0979 294.896 34.6079 295.028 35.1599 295.028C35.6159 295.028 36.0539 294.95 36.4739 294.794C36.9059 294.626 37.2719 294.404 37.5719 294.128L38.3999 295.01C37.8959 295.406 37.3739 295.7 36.8339 295.892C36.2939 296.084 35.7179 296.18 35.1059 296.18ZM32.0639 290.96H37.6259C37.5659 290.432 37.4039 289.964 37.1399 289.556C36.8879 289.136 36.5639 288.806 36.1679 288.566C35.7839 288.326 35.3519 288.206 34.8719 288.206C34.3919 288.206 33.9539 288.326 33.5579 288.566C33.1619 288.794 32.8319 289.118 32.5679 289.538C32.3159 289.946 32.1479 290.42 32.0639 290.96ZM44.2498 296.18C43.4938 296.18 42.9178 296 42.5218 295.64C42.1378 295.268 41.9458 294.734 41.9458 294.038V288.296H40.1278V287.216H41.9458V284.804L43.2598 284.498V287.216H45.7798V288.296H43.2598V293.696C43.2598 294.164 43.3558 294.5 43.5478 294.704C43.7518 294.908 44.0818 295.01 44.5378 295.01C44.7658 295.01 44.9698 294.992 45.1498 294.956C45.3298 294.92 45.5398 294.86 45.7798 294.776V295.946C45.5398 296.03 45.2878 296.09 45.0238 296.126C44.7598 296.162 44.5018 296.18 44.2498 296.18ZM51.2283 296.18C50.4723 296.18 49.8963 296 49.5003 295.64C49.1163 295.268 48.9243 294.734 48.9243 294.038V288.296H47.1063V287.216H48.9243V284.804L50.2383 284.498V287.216H52.7583V288.296H50.2383V293.696C50.2383 294.164 50.3343 294.5 50.5263 294.704C50.7303 294.908 51.0603 295.01 51.5163 295.01C51.7443 295.01 51.9483 294.992 52.1283 294.956C52.3083 294.92 52.5183 294.86 52.7583 294.776V295.946C52.5183 296.03 52.2663 296.09 52.0023 296.126C51.7383 296.162 51.4803 296.18 51.2283 296.18ZM58.4672 296.18C57.6512 296.18 56.9132 295.982 56.2532 295.586C55.5932 295.178 55.0712 294.632 54.6872 293.948C54.3032 293.252 54.1112 292.472 54.1112 291.608C54.1112 290.744 54.2912 289.97 54.6512 289.286C55.0232 288.602 55.5212 288.062 56.1452 287.666C56.7692 287.27 57.4652 287.072 58.2332 287.072C59.0132 287.072 59.7032 287.27 60.3032 287.666C60.9152 288.05 61.3952 288.578 61.7432 289.25C62.1032 289.91 62.2832 290.66 62.2832 291.5V291.896H55.3892C55.4372 292.496 55.5992 293.036 55.8752 293.516C56.1632 293.984 56.5352 294.356 56.9912 294.632C57.4592 294.896 57.9692 295.028 58.5212 295.028C58.9772 295.028 59.4152 294.95 59.8352 294.794C60.2672 294.626 60.6332 294.404 60.9332 294.128L61.7612 295.01C61.2572 295.406 60.7352 295.7 60.1952 295.892C59.6552 296.084 59.0792 296.18 58.4672 296.18ZM55.4252 290.96H60.9872C60.9272 290.432 60.7652 289.964 60.5012 289.556C60.2492 289.136 59.9252 288.806 59.5292 288.566C59.1452 288.326 58.7132 288.206 58.2332 288.206C57.7532 288.206 57.3152 288.326 56.9192 288.566C56.5232 288.794 56.1932 289.118 55.9292 289.538C55.6772 289.946 55.5092 290.42 55.4252 290.96ZM63.9148 296V294.956L68.9728 288.404L63.9688 288.422V287.216H70.5748V288.242L65.4988 294.83L70.6468 294.812V296H63.9148ZM71.9916 291.5V290.366H77.9856V291.5H71.9916ZM82.955 296L79.355 287.216H80.777L83.621 294.362L86.429 287.216H87.833L84.215 296H82.955ZM93.0769 296.144C92.2609 296.144 91.5289 295.946 90.8809 295.55C90.2329 295.154 89.7229 294.614 89.3509 293.93C88.9789 293.246 88.7929 292.472 88.7929 291.608C88.7929 290.744 88.9789 289.97 89.3509 289.286C89.7229 288.602 90.2329 288.062 90.8809 287.666C91.5289 287.27 92.2609 287.072 93.0769 287.072C93.8809 287.072 94.6009 287.27 95.2369 287.666C95.8849 288.062 96.3949 288.602 96.7669 289.286C97.1389 289.97 97.3249 290.744 97.3249 291.608C97.3249 292.472 97.1389 293.246 96.7669 293.93C96.3949 294.614 95.8849 295.154 95.2369 295.55C94.6009 295.946 93.8809 296.144 93.0769 296.144ZM93.0589 294.992C93.6349 294.992 94.1449 294.848 94.5889 294.56C95.0329 294.26 95.3809 293.852 95.6329 293.336C95.8969 292.82 96.0289 292.244 96.0289 291.608C96.0289 290.96 95.8969 290.384 95.6329 289.88C95.3809 289.364 95.0329 288.962 94.5889 288.674C94.1449 288.374 93.6349 288.224 93.0589 288.224C92.4829 288.224 91.9729 288.374 91.5289 288.674C91.0849 288.962 90.7309 289.364 90.4669 289.88C90.2149 290.384 90.0889 290.96 90.0889 291.608C90.0889 292.244 90.2149 292.82 90.4669 293.336C90.7309 293.852 91.0849 294.26 91.5289 294.56C91.9729 294.848 92.4829 294.992 93.0589 294.992ZM102.762 296.144C102.138 296.144 101.586 296.006 101.106 295.73C100.626 295.454 100.248 295.07 99.9723 294.578C99.7083 294.086 99.5763 293.522 99.5763 292.886V287.216H100.908V292.508C100.908 293.288 101.118 293.906 101.538 294.362C101.958 294.818 102.528 295.046 103.248 295.046C103.74 295.046 104.178 294.932 104.562 294.704C104.958 294.476 105.288 294.146 105.552 293.714V287.216H106.866V296H105.552V294.578C105.216 295.094 104.814 295.484 104.346 295.748C103.89 296.012 103.362 296.144 102.762 296.144ZM112.28 296.18C111.56 296.18 110.894 296.072 110.282 295.856C109.67 295.628 109.148 295.304 108.716 294.884L109.418 294.02C109.946 294.404 110.432 294.686 110.876 294.866C111.32 295.034 111.776 295.118 112.244 295.118C112.88 295.118 113.408 294.968 113.828 294.668C114.248 294.368 114.458 293.984 114.458 293.516C114.458 293.156 114.332 292.874 114.08 292.67C113.84 292.466 113.438 292.31 112.874 292.202L111.434 291.95C110.582 291.794 109.952 291.53 109.544 291.158C109.148 290.786 108.95 290.282 108.95 289.646C108.95 289.142 109.082 288.698 109.346 288.314C109.622 287.93 110 287.63 110.48 287.414C110.96 287.186 111.506 287.072 112.118 287.072C112.718 287.072 113.288 287.162 113.828 287.342C114.368 287.51 114.914 287.786 115.466 288.17L114.818 289.088C114.362 288.764 113.906 288.53 113.45 288.386C112.994 288.23 112.532 288.152 112.064 288.152C111.488 288.152 111.026 288.278 110.678 288.53C110.33 288.782 110.156 289.124 110.156 289.556C110.156 289.916 110.264 290.192 110.48 290.384C110.708 290.576 111.104 290.72 111.668 290.816L113.144 291.086C114.032 291.242 114.68 291.512 115.088 291.896C115.496 292.28 115.7 292.796 115.7 293.444C115.7 293.96 115.55 294.428 115.25 294.848C114.95 295.256 114.542 295.58 114.026 295.82C113.51 296.06 112.928 296.18 112.28 296.18ZM125.862 296.18C125.046 296.18 124.308 295.982 123.648 295.586C122.988 295.178 122.466 294.632 122.082 293.948C121.698 293.252 121.506 292.472 121.506 291.608C121.506 290.744 121.686 289.97 122.046 289.286C122.418 288.602 122.916 288.062 123.54 287.666C124.164 287.27 124.86 287.072 125.628 287.072C126.408 287.072 127.098 287.27 127.698 287.666C128.31 288.05 128.79 288.578 129.138 289.25C129.498 289.91 129.678 290.66 129.678 291.5V291.896H122.784C122.832 292.496 122.994 293.036 123.27 293.516C123.558 293.984 123.93 294.356 124.386 294.632C124.854 294.896 125.364 295.028 125.916 295.028C126.372 295.028 126.81 294.95 127.23 294.794C127.662 294.626 128.028 294.404 128.328 294.128L129.156 295.01C128.652 295.406 128.13 295.7 127.59 295.892C127.05 296.084 126.474 296.18 125.862 296.18ZM122.82 290.96H128.382C128.322 290.432 128.16 289.964 127.896 289.556C127.644 289.136 127.32 288.806 126.924 288.566C126.54 288.326 126.108 288.206 125.628 288.206C125.148 288.206 124.71 288.326 124.314 288.566C123.918 288.794 123.588 289.118 123.324 289.538C123.072 289.946 122.904 290.42 122.82 290.96ZM131.921 296V287.216H133.235V288.638C133.571 288.11 133.973 287.72 134.441 287.468C134.909 287.204 135.437 287.072 136.025 287.072C136.661 287.072 137.213 287.21 137.681 287.486C138.161 287.75 138.533 288.128 138.797 288.62C139.073 289.1 139.211 289.664 139.211 290.312V296H137.897V290.69C137.897 289.91 137.681 289.298 137.249 288.854C136.829 288.398 136.259 288.17 135.539 288.17C135.059 288.17 134.621 288.284 134.225 288.512C133.829 288.74 133.499 289.076 133.235 289.52V296H131.921ZM146.054 296V287.216H147.368V289.016C147.596 288.404 147.92 287.93 148.34 287.594C148.772 287.246 149.264 287.072 149.816 287.072C149.972 287.072 150.116 287.084 150.248 287.108C150.38 287.12 150.512 287.15 150.644 287.198V288.386C150.5 288.338 150.344 288.302 150.176 288.278C150.02 288.242 149.87 288.224 149.726 288.224C149.186 288.224 148.712 288.38 148.304 288.692C147.908 289.004 147.596 289.442 147.368 290.006V296H146.054ZM155.725 296.144C154.909 296.144 154.177 295.946 153.529 295.55C152.881 295.154 152.371 294.614 151.999 293.93C151.627 293.246 151.441 292.472 151.441 291.608C151.441 290.744 151.627 289.97 151.999 289.286C152.371 288.602 152.881 288.062 153.529 287.666C154.177 287.27 154.909 287.072 155.725 287.072C156.529 287.072 157.249 287.27 157.885 287.666C158.533 288.062 159.043 288.602 159.415 289.286C159.787 289.97 159.973 290.744 159.973 291.608C159.973 292.472 159.787 293.246 159.415 293.93C159.043 294.614 158.533 295.154 157.885 295.55C157.249 295.946 156.529 296.144 155.725 296.144ZM155.707 294.992C156.283 294.992 156.793 294.848 157.237 294.56C157.681 294.26 158.029 293.852 158.281 293.336C158.545 292.82 158.677 292.244 158.677 291.608C158.677 290.96 158.545 290.384 158.281 289.88C158.029 289.364 157.681 288.962 157.237 288.674C156.793 288.374 156.283 288.224 155.707 288.224C155.131 288.224 154.621 288.374 154.177 288.674C153.733 288.962 153.379 289.364 153.115 289.88C152.863 290.384 152.737 290.96 152.737 291.608C152.737 292.244 152.863 292.82 153.115 293.336C153.379 293.852 153.733 294.26 154.177 294.56C154.621 294.848 155.131 294.992 155.707 294.992ZM165.411 296.144C164.787 296.144 164.235 296.006 163.755 295.73C163.275 295.454 162.897 295.07 162.621 294.578C162.357 294.086 162.225 293.522 162.225 292.886V287.216H163.557V292.508C163.557 293.288 163.767 293.906 164.187 294.362C164.607 294.818 165.177 295.046 165.897 295.046C166.389 295.046 166.827 294.932 167.211 294.704C167.607 294.476 167.937 294.146 168.201 293.714V287.216H169.515V296H168.201V294.578C167.865 295.094 167.463 295.484 166.995 295.748C166.539 296.012 166.011 296.144 165.411 296.144ZM175.558 296.18C174.802 296.18 174.226 296 173.83 295.64C173.446 295.268 173.254 294.734 173.254 294.038V288.296H171.436V287.216H173.254V284.804L174.568 284.498V287.216H177.088V288.296H174.568V293.696C174.568 294.164 174.664 294.5 174.856 294.704C175.06 294.908 175.39 295.01 175.846 295.01C176.074 295.01 176.278 294.992 176.458 294.956C176.638 294.92 176.848 294.86 177.088 294.776V295.946C176.848 296.03 176.596 296.09 176.332 296.126C176.068 296.162 175.81 296.18 175.558 296.18ZM182.797 296.18C181.981 296.18 181.243 295.982 180.583 295.586C179.923 295.178 179.401 294.632 179.017 293.948C178.633 293.252 178.441 292.472 178.441 291.608C178.441 290.744 178.621 289.97 178.981 289.286C179.353 288.602 179.851 288.062 180.475 287.666C181.099 287.27 181.795 287.072 182.563 287.072C183.343 287.072 184.033 287.27 184.633 287.666C185.245 288.05 185.725 288.578 186.073 289.25C186.433 289.91 186.613 290.66 186.613 291.5V291.896H179.719C179.767 292.496 179.929 293.036 180.205 293.516C180.493 293.984 180.865 294.356 181.321 294.632C181.789 294.896 182.299 295.028 182.851 295.028C183.307 295.028 183.745 294.95 184.165 294.794C184.597 294.626 184.963 294.404 185.263 294.128L186.091 295.01C185.587 295.406 185.065 295.7 184.525 295.892C183.985 296.084 183.409 296.18 182.797 296.18ZM179.755 290.96H185.317C185.257 290.432 185.095 289.964 184.831 289.556C184.579 289.136 184.255 288.806 183.859 288.566C183.475 288.326 183.043 288.206 182.563 288.206C182.083 288.206 181.645 288.326 181.249 288.566C180.853 288.794 180.523 289.118 180.259 289.538C180.007 289.946 179.839 290.42 179.755 290.96ZM195.776 296.18C195.056 296.18 194.39 296.072 193.778 295.856C193.166 295.628 192.644 295.304 192.212 294.884L192.914 294.02C193.442 294.404 193.928 294.686 194.372 294.866C194.816 295.034 195.272 295.118 195.74 295.118C196.376 295.118 196.904 294.968 197.324 294.668C197.744 294.368 197.954 293.984 197.954 293.516C197.954 293.156 197.828 292.874 197.576 292.67C197.336 292.466 196.934 292.31 196.37 292.202L194.93 291.95C194.078 291.794 193.448 291.53 193.04 291.158C192.644 290.786 192.446 290.282 192.446 289.646C192.446 289.142 192.578 288.698 192.842 288.314C193.118 287.93 193.496 287.63 193.976 287.414C194.456 287.186 195.002 287.072 195.614 287.072C196.214 287.072 196.784 287.162 197.324 287.342C197.864 287.51 198.41 287.786 198.962 288.17L198.314 289.088C197.858 288.764 197.402 288.53 196.946 288.386C196.49 288.23 196.028 288.152 195.56 288.152C194.984 288.152 194.522 288.278 194.174 288.53C193.826 288.782 193.652 289.124 193.652 289.556C193.652 289.916 193.76 290.192 193.976 290.384C194.204 290.576 194.6 290.72 195.164 290.816L196.64 291.086C197.528 291.242 198.176 291.512 198.584 291.896C198.992 292.28 199.196 292.796 199.196 293.444C199.196 293.96 199.046 294.428 198.746 294.848C198.446 295.256 198.038 295.58 197.522 295.82C197.006 296.06 196.424 296.18 195.776 296.18ZM204.003 296.162C203.379 296.162 202.827 296.048 202.347 295.82C201.867 295.592 201.489 295.28 201.213 294.884C200.949 294.476 200.817 294.008 200.817 293.48C200.817 292.952 200.955 292.496 201.231 292.112C201.507 291.716 201.891 291.41 202.383 291.194C202.875 290.978 203.451 290.87 204.111 290.87C204.615 290.87 205.089 290.924 205.533 291.032C205.989 291.14 206.409 291.314 206.793 291.554V290.348C206.793 289.628 206.601 289.088 206.217 288.728C205.833 288.356 205.269 288.17 204.525 288.17C204.117 288.17 203.697 288.23 203.265 288.35C202.845 288.47 202.377 288.662 201.861 288.926L201.375 287.918C202.551 287.354 203.655 287.072 204.687 287.072C205.779 287.072 206.619 287.342 207.207 287.882C207.795 288.41 208.089 289.172 208.089 290.168V296H206.793V294.974C206.409 295.37 205.983 295.67 205.515 295.874C205.047 296.066 204.543 296.162 204.003 296.162ZM202.077 293.444C202.077 293.96 202.275 294.374 202.671 294.686C203.079 294.998 203.613 295.154 204.273 295.154C204.765 295.154 205.215 295.07 205.623 294.902C206.043 294.734 206.433 294.482 206.793 294.146V292.454C206.421 292.238 206.037 292.082 205.641 291.986C205.245 291.878 204.801 291.824 204.309 291.824C203.637 291.824 203.097 291.974 202.689 292.274C202.281 292.562 202.077 292.952 202.077 293.444ZM210.759 296V287.216H212.073V288.638C212.409 288.11 212.811 287.72 213.279 287.468C213.747 287.204 214.275 287.072 214.863 287.072C215.499 287.072 216.051 287.21 216.519 287.486C216.999 287.75 217.371 288.128 217.635 288.62C217.911 289.1 218.049 289.664 218.049 290.312V296H216.735V290.69C216.735 289.91 216.519 289.298 216.087 288.854C215.667 288.398 215.097 288.17 214.377 288.17C213.897 288.17 213.459 288.284 213.063 288.512C212.667 288.74 212.337 289.076 212.073 289.52V296H210.759ZM223.409 296.18C222.689 296.18 222.023 296.072 221.411 295.856C220.799 295.628 220.277 295.304 219.845 294.884L220.547 294.02C221.075 294.404 221.561 294.686 222.005 294.866C222.449 295.034 222.905 295.118 223.373 295.118C224.009 295.118 224.537 294.968 224.957 294.668C225.377 294.368 225.587 293.984 225.587 293.516C225.587 293.156 225.461 292.874 225.209 292.67C224.969 292.466 224.567 292.31 224.003 292.202L222.563 291.95C221.711 291.794 221.081 291.53 220.673 291.158C220.277 290.786 220.079 290.282 220.079 289.646C220.079 289.142 220.211 288.698 220.475 288.314C220.751 287.93 221.129 287.63 221.609 287.414C222.089 287.186 222.635 287.072 223.247 287.072C223.847 287.072 224.417 287.162 224.957 287.342C225.497 287.51 226.043 287.786 226.595 288.17L225.947 289.088C225.491 288.764 225.035 288.53 224.579 288.386C224.123 288.23 223.661 288.152 223.193 288.152C222.617 288.152 222.155 288.278 221.807 288.53C221.459 288.782 221.285 289.124 221.285 289.556C221.285 289.916 221.393 290.192 221.609 290.384C221.837 290.576 222.233 290.72 222.797 290.816L224.273 291.086C225.161 291.242 225.809 291.512 226.217 291.896C226.625 292.28 226.829 292.796 226.829 293.444C226.829 293.96 226.679 294.428 226.379 294.848C226.079 295.256 225.671 295.58 225.155 295.82C224.639 296.06 224.057 296.18 223.409 296.18ZM235.749 296.18C235.029 296.18 234.363 296.072 233.751 295.856C233.139 295.628 232.617 295.304 232.185 294.884L232.887 294.02C233.415 294.404 233.901 294.686 234.345 294.866C234.789 295.034 235.245 295.118 235.713 295.118C236.349 295.118 236.877 294.968 237.297 294.668C237.717 294.368 237.927 293.984 237.927 293.516C237.927 293.156 237.801 292.874 237.549 292.67C237.309 292.466 236.907 292.31 236.343 292.202L234.903 291.95C234.051 291.794 233.421 291.53 233.013 291.158C232.617 290.786 232.419 290.282 232.419 289.646C232.419 289.142 232.551 288.698 232.815 288.314C233.091 287.93 233.469 287.63 233.949 287.414C234.429 287.186 234.975 287.072 235.587 287.072C236.187 287.072 236.757 287.162 237.297 287.342C237.837 287.51 238.383 287.786 238.935 288.17L238.287 289.088C237.831 288.764 237.375 288.53 236.919 288.386C236.463 288.23 236.001 288.152 235.533 288.152C234.957 288.152 234.495 288.278 234.147 288.53C233.799 288.782 233.625 289.124 233.625 289.556C233.625 289.916 233.733 290.192 233.949 290.384C234.177 290.576 234.573 290.72 235.137 290.816L236.613 291.086C237.501 291.242 238.149 291.512 238.557 291.896C238.965 292.28 239.169 292.796 239.169 293.444C239.169 293.96 239.019 294.428 238.719 294.848C238.419 295.256 238.011 295.58 237.495 295.82C236.979 296.06 236.397 296.18 235.749 296.18ZM245.145 296.144C244.329 296.144 243.597 295.946 242.949 295.55C242.301 295.154 241.791 294.614 241.419 293.93C241.047 293.246 240.861 292.472 240.861 291.608C240.861 290.744 241.047 289.97 241.419 289.286C241.791 288.602 242.301 288.062 242.949 287.666C243.597 287.27 244.329 287.072 245.145 287.072C245.949 287.072 246.669 287.27 247.305 287.666C247.953 288.062 248.463 288.602 248.835 289.286C249.207 289.97 249.393 290.744 249.393 291.608C249.393 292.472 249.207 293.246 248.835 293.93C248.463 294.614 247.953 295.154 247.305 295.55C246.669 295.946 245.949 296.144 245.145 296.144ZM245.127 294.992C245.703 294.992 246.213 294.848 246.657 294.56C247.101 294.26 247.449 293.852 247.701 293.336C247.965 292.82 248.097 292.244 248.097 291.608C248.097 290.96 247.965 290.384 247.701 289.88C247.449 289.364 247.101 288.962 246.657 288.674C246.213 288.374 245.703 288.224 245.127 288.224C244.551 288.224 244.041 288.374 243.597 288.674C243.153 288.962 242.799 289.364 242.535 289.88C242.283 290.384 242.157 290.96 242.157 291.608C242.157 292.244 242.283 292.82 242.535 293.336C242.799 293.852 243.153 294.26 243.597 294.56C244.041 294.848 244.551 294.992 245.127 294.992ZM254.831 296.144C254.207 296.144 253.655 296.006 253.175 295.73C252.695 295.454 252.317 295.07 252.041 294.578C251.777 294.086 251.645 293.522 251.645 292.886V287.216H252.977V292.508C252.977 293.288 253.187 293.906 253.607 294.362C254.027 294.818 254.597 295.046 255.317 295.046C255.809 295.046 256.247 294.932 256.631 294.704C257.027 294.476 257.357 294.146 257.621 293.714V287.216H258.935V296H257.621V294.578C257.285 295.094 256.883 295.484 256.415 295.748C255.959 296.012 255.431 296.144 254.831 296.144ZM265.572 296.144C264.756 296.144 264.018 295.946 263.358 295.55C262.71 295.142 262.194 294.596 261.81 293.912C261.426 293.216 261.234 292.448 261.234 291.608C261.234 290.756 261.426 289.988 261.81 289.304C262.194 288.62 262.71 288.08 263.358 287.684C264.018 287.276 264.756 287.072 265.572 287.072C266.22 287.072 266.838 287.192 267.426 287.432C268.014 287.672 268.524 288.008 268.956 288.44L268.11 289.358C267.798 289.01 267.42 288.74 266.976 288.548C266.532 288.356 266.082 288.26 265.626 288.26C265.05 288.26 264.528 288.41 264.06 288.71C263.604 289.01 263.238 289.412 262.962 289.916C262.686 290.42 262.548 290.984 262.548 291.608C262.548 292.232 262.686 292.796 262.962 293.3C263.238 293.804 263.604 294.206 264.06 294.506C264.528 294.806 265.05 294.956 265.626 294.956C266.082 294.956 266.532 294.86 266.976 294.668C267.42 294.464 267.798 294.194 268.11 293.858L268.956 294.776C268.524 295.208 268.014 295.544 267.426 295.784C266.838 296.024 266.22 296.144 265.572 296.144ZM270.77 296V287.216H272.084V296H270.77ZM271.436 285.038C271.172 285.038 270.944 284.948 270.752 284.768C270.572 284.576 270.482 284.354 270.482 284.102C270.482 283.85 270.572 283.634 270.752 283.454C270.944 283.262 271.172 283.166 271.436 283.166C271.7 283.166 271.922 283.262 272.102 283.454C272.294 283.634 272.39 283.85 272.39 284.102C272.39 284.354 272.294 284.576 272.102 284.768C271.922 284.948 271.7 285.038 271.436 285.038ZM277.497 296.18C276.777 296.18 276.111 296.072 275.499 295.856C274.887 295.628 274.365 295.304 273.933 294.884L274.635 294.02C275.163 294.404 275.649 294.686 276.093 294.866C276.537 295.034 276.993 295.118 277.461 295.118C278.097 295.118 278.625 294.968 279.045 294.668C279.465 294.368 279.675 293.984 279.675 293.516C279.675 293.156 279.549 292.874 279.297 292.67C279.057 292.466 278.655 292.31 278.091 292.202L276.651 291.95C275.799 291.794 275.169 291.53 274.761 291.158C274.365 290.786 274.167 290.282 274.167 289.646C274.167 289.142 274.299 288.698 274.563 288.314C274.839 287.93 275.217 287.63 275.697 287.414C276.177 287.186 276.723 287.072 277.335 287.072C277.935 287.072 278.505 287.162 279.045 287.342C279.585 287.51 280.131 287.786 280.683 288.17L280.035 289.088C279.579 288.764 279.123 288.53 278.667 288.386C278.211 288.23 277.749 288.152 277.281 288.152C276.705 288.152 276.243 288.278 275.895 288.53C275.547 288.782 275.373 289.124 275.373 289.556C275.373 289.916 275.481 290.192 275.697 290.384C275.925 290.576 276.321 290.72 276.885 290.816L278.361 291.086C279.249 291.242 279.897 291.512 280.305 291.896C280.713 292.28 280.917 292.796 280.917 293.444C280.917 293.96 280.767 294.428 280.467 294.848C280.167 295.256 279.759 295.58 279.243 295.82C278.727 296.06 278.145 296.18 277.497 296.18ZM283.642 296.144C283.378 296.144 283.15 296.048 282.958 295.856C282.778 295.664 282.688 295.436 282.688 295.172C282.688 294.896 282.778 294.668 282.958 294.488C283.15 294.296 283.378 294.2 283.642 294.2C283.906 294.2 284.128 294.296 284.308 294.488C284.5 294.668 284.596 294.896 284.596 295.172C284.596 295.436 284.5 295.664 284.308 295.856C284.128 296.048 283.906 296.144 283.642 296.144Z" fill="#777E90"/>
<path d="M91 25C91 11.1929 102.193 0 116 0H181C194.807 0 206 11.1929 206 25V90C206 103.807 194.807 115 181 115H116C102.193 115 91 103.807 91 90V25Z" fill="#FDAD00"/>
<path d="M132.665 42.8998H138.1V52.7998H126.478L129.613 44.9726C130.108 43.7248 131.314 42.8998 132.665 42.8998ZM143.05 52.7998V42.8998H151.424C152.424 42.8998 153.373 43.3536 154.002 44.1373L160.932 52.7998H143.05ZM169.471 52.9029L159.158 40.0123C157.281 37.6611 154.435 36.2998 151.424 36.2998H132.665C128.613 36.2998 124.972 38.7645 123.477 42.5182L119.187 53.2536C116.732 54.2229 115 56.6051 115 59.3998V70.9498C115 72.7751 116.475 74.2498 118.3 74.2498H121.734C122.518 78.9317 126.591 82.4998 131.5 82.4998C136.409 82.4998 140.482 78.9317 141.266 74.2498H154.734C155.518 78.9317 159.591 82.4998 164.5 82.4998C169.409 82.4998 173.482 78.9317 174.266 74.2498H177.7C179.525 74.2498 181 72.7751 181 70.9498V65.9998C181 59.2761 175.967 53.7279 169.471 52.9029ZM159.828 70.9498C160.039 70.3286 160.37 69.7553 160.803 69.2632C161.237 68.7712 161.764 68.3702 162.354 68.0835C162.944 67.7968 163.584 67.6302 164.239 67.5933C164.894 67.5564 165.549 67.65 166.168 67.8686C166.786 68.0873 167.355 68.4266 167.841 68.8668C168.327 69.3071 168.72 69.8395 168.999 70.4332C169.277 71.0269 169.435 71.67 169.463 72.3252C169.491 72.9804 169.388 73.6346 169.161 74.2498C168.951 74.871 168.62 75.4443 168.186 75.9364C167.753 76.4284 167.226 76.8294 166.636 77.1161C166.046 77.4028 165.405 77.5694 164.751 77.6063C164.096 77.6432 163.44 77.5496 162.822 77.331C162.204 77.1123 161.635 76.7731 161.149 76.3328C160.663 75.8926 160.269 75.3601 159.991 74.7664C159.712 74.1727 159.554 73.5296 159.527 72.8744C159.499 72.2192 159.601 71.565 159.828 70.9498ZM131.5 67.6498C132.813 67.6498 134.072 68.1713 135 69.0996C135.928 70.0279 136.45 71.287 136.45 72.5998C136.45 73.9126 135.928 75.1717 135 76.1C134.072 77.0283 132.813 77.5498 131.5 77.5498C130.187 77.5498 128.928 77.0283 128 76.1C127.072 75.1717 126.55 73.9126 126.55 72.5998C126.55 71.287 127.072 70.0279 128 69.0996C128.928 68.1713 130.187 67.6498 131.5 67.6498Z" fill="white"/>
</svg>
