<svg width="302" height="355" viewBox="0 0 302 355" fill="none" xmlns="http://www.w3.org/2000/svg">
<path d="M34.427 296L29.495 283.4H30.971L35.291 294.668L39.629 283.4H41.051L36.083 296H34.427ZM45.5414 296.18C44.7254 296.18 43.9874 295.982 43.3274 295.586C42.6674 295.178 42.1454 294.632 41.7614 293.948C41.3774 293.252 41.1854 292.472 41.1854 291.608C41.1854 290.744 41.3654 289.97 41.7254 289.286C42.0974 288.602 42.5954 288.062 43.2194 287.666C43.8434 287.27 44.5394 287.072 45.3074 287.072C46.0874 287.072 46.7774 287.27 47.3774 287.666C47.9894 288.05 48.4694 288.578 48.8174 289.25C49.1774 289.91 49.3574 290.66 49.3574 291.5V291.896H42.4634C42.5114 292.496 42.6734 293.036 42.9494 293.516C43.2374 293.984 43.6094 294.356 44.0654 294.632C44.5334 294.896 45.0434 295.028 45.5954 295.028C46.0514 295.028 46.4894 294.95 46.9094 294.794C47.3414 294.626 47.7074 294.404 48.0074 294.128L48.8354 295.01C48.3314 295.406 47.8094 295.7 47.2694 295.892C46.7294 296.084 46.1534 296.18 45.5414 296.18ZM42.4994 290.96H48.0614C48.0014 290.432 47.8394 289.964 47.5754 289.556C47.3234 289.136 46.9994 288.806 46.6034 288.566C46.2194 288.326 45.7874 288.206 45.3074 288.206C44.8274 288.206 44.3894 288.326 43.9934 288.566C43.5974 288.794 43.2674 289.118 43.0034 289.538C42.7514 289.946 42.5834 290.42 42.4994 290.96ZM44.2454 285.488L46.2614 283.292H48.0434L45.4514 285.488H44.2454ZM51.601 296V287.216H52.915V289.016C53.143 288.404 53.467 287.93 53.887 287.594C54.319 287.246 54.811 287.072 55.363 287.072C55.519 287.072 55.663 287.084 55.795 287.108C55.927 287.12 56.059 287.15 56.191 287.198V288.386C56.047 288.338 55.891 288.302 55.723 288.278C55.567 288.242 55.417 288.224 55.273 288.224C54.733 288.224 54.259 288.38 53.851 288.692C53.455 289.004 53.143 289.442 52.915 290.006V296H51.601ZM57.9111 296V287.216H59.2251V296H57.9111ZM58.5771 285.038C58.3131 285.038 58.0851 284.948 57.8931 284.768C57.7131 284.576 57.6231 284.354 57.6231 284.102C57.6231 283.85 57.7131 283.634 57.8931 283.454C58.0851 283.262 58.3131 283.166 58.5771 283.166C58.8411 283.166 59.0631 283.262 59.2431 283.454C59.4351 283.634 59.5311 283.85 59.5311 284.102C59.5311 284.354 59.4351 284.576 59.2431 284.768C59.0631 284.948 58.8411 285.038 58.5771 285.038ZM63.0353 296V288.296H61.0733V287.216H63.0353V285.38C63.0353 284.516 63.2633 283.85 63.7193 283.382C64.1753 282.914 64.8233 282.68 65.6633 282.68C65.9033 282.68 66.1193 282.692 66.3113 282.716C66.5153 282.74 66.6953 282.782 66.8513 282.842V284.03C66.6593 283.97 66.4853 283.928 66.3293 283.904C66.1733 283.88 65.9933 283.868 65.7893 283.868C65.2853 283.868 64.9193 283.994 64.6913 284.246C64.4633 284.486 64.3493 284.87 64.3493 285.398V287.216H66.8513V288.296H64.3493V296H63.0353ZM68.5634 296V287.216H69.8774V296H68.5634ZM69.2294 285.038C68.9654 285.038 68.7374 284.948 68.5454 284.768C68.3654 284.576 68.2754 284.354 68.2754 284.102C68.2754 283.85 68.3654 283.634 68.5454 283.454C68.7374 283.262 68.9654 283.166 69.2294 283.166C69.4934 283.166 69.7154 283.262 69.8954 283.454C70.0874 283.634 70.1834 283.85 70.1834 284.102C70.1834 284.354 70.0874 284.576 69.8954 284.768C69.7154 284.948 69.4934 285.038 69.2294 285.038ZM76.5317 296.18C75.7157 296.18 74.9777 295.982 74.3177 295.586C73.6577 295.178 73.1357 294.632 72.7517 293.948C72.3677 293.252 72.1757 292.472 72.1757 291.608C72.1757 290.744 72.3557 289.97 72.7157 289.286C73.0877 288.602 73.5857 288.062 74.2097 287.666C74.8337 287.27 75.5297 287.072 76.2977 287.072C77.0777 287.072 77.7677 287.27 78.3677 287.666C78.9797 288.05 79.4597 288.578 79.8077 289.25C80.1677 289.91 80.3477 290.66 80.3477 291.5V291.896H73.4537C73.5017 292.496 73.6637 293.036 73.9397 293.516C74.2277 293.984 74.5997 294.356 75.0557 294.632C75.5237 294.896 76.0337 295.028 76.5857 295.028C77.0417 295.028 77.4797 294.95 77.8997 294.794C78.3317 294.626 78.6977 294.404 78.9977 294.128L79.8257 295.01C79.3217 295.406 78.7997 295.7 78.2597 295.892C77.7197 296.084 77.1437 296.18 76.5317 296.18ZM73.4897 290.96H79.0517C78.9917 290.432 78.8297 289.964 78.5657 289.556C78.3137 289.136 77.9897 288.806 77.5937 288.566C77.2097 288.326 76.7777 288.206 76.2977 288.206C75.8177 288.206 75.3797 288.326 74.9837 288.566C74.5877 288.794 74.2577 289.118 73.9937 289.538C73.7417 289.946 73.5737 290.42 73.4897 290.96ZM81.9792 296V294.956L87.0372 288.404L82.0332 288.422V287.216H88.6392V288.242L83.5632 294.83L88.7112 294.812V296H81.9792ZM99.0141 296.18C98.1981 296.18 97.4601 295.982 96.8001 295.586C96.1401 295.178 95.6181 294.632 95.2341 293.948C94.8501 293.252 94.6581 292.472 94.6581 291.608C94.6581 290.744 94.8381 289.97 95.1981 289.286C95.5701 288.602 96.0681 288.062 96.6921 287.666C97.3161 287.27 98.0121 287.072 98.7801 287.072C99.5601 287.072 100.25 287.27 100.85 287.666C101.462 288.05 101.942 288.578 102.29 289.25C102.65 289.91 102.83 290.66 102.83 291.5V291.896H95.9361C95.9841 292.496 96.1461 293.036 96.4221 293.516C96.7101 293.984 97.0821 294.356 97.5381 294.632C98.0061 294.896 98.5161 295.028 99.0681 295.028C99.5241 295.028 99.9621 294.95 100.382 294.794C100.814 294.626 101.18 294.404 101.48 294.128L102.308 295.01C101.804 295.406 101.282 295.7 100.742 295.892C100.202 296.084 99.6261 296.18 99.0141 296.18ZM95.9721 290.96H101.534C101.474 290.432 101.312 289.964 101.048 289.556C100.796 289.136 100.472 288.806 100.076 288.566C99.6921 288.326 99.2601 288.206 98.7801 288.206C98.3001 288.206 97.8621 288.326 97.4661 288.566C97.0701 288.794 96.7401 289.118 96.4761 289.538C96.2241 289.946 96.0561 290.42 95.9721 290.96ZM108.158 296.18C107.402 296.18 106.826 296 106.43 295.64C106.046 295.268 105.854 294.734 105.854 294.038V288.296H104.036V287.216H105.854V284.804L107.168 284.498V287.216H109.688V288.296H107.168V293.696C107.168 294.164 107.264 294.5 107.456 294.704C107.66 294.908 107.99 295.01 108.446 295.01C108.674 295.01 108.878 294.992 109.058 294.956C109.238 294.92 109.448 294.86 109.688 294.776V295.946C109.448 296.03 109.196 296.09 108.932 296.126C108.668 296.162 108.41 296.18 108.158 296.18ZM119.756 296.144C118.94 296.144 118.202 295.946 117.542 295.55C116.894 295.142 116.378 294.596 115.994 293.912C115.61 293.216 115.418 292.448 115.418 291.608C115.418 290.756 115.61 289.988 115.994 289.304C116.378 288.62 116.894 288.08 117.542 287.684C118.202 287.276 118.94 287.072 119.756 287.072C120.404 287.072 121.022 287.192 121.61 287.432C122.198 287.672 122.708 288.008 123.14 288.44L122.294 289.358C121.982 289.01 121.604 288.74 121.16 288.548C120.716 288.356 120.266 288.26 119.81 288.26C119.234 288.26 118.712 288.41 118.244 288.71C117.788 289.01 117.422 289.412 117.146 289.916C116.87 290.42 116.732 290.984 116.732 291.608C116.732 292.232 116.87 292.796 117.146 293.3C117.422 293.804 117.788 294.206 118.244 294.506C118.712 294.806 119.234 294.956 119.81 294.956C120.266 294.956 120.716 294.86 121.16 294.668C121.604 294.464 121.982 294.194 122.294 293.858L123.14 294.776C122.708 295.208 122.198 295.544 121.61 295.784C121.022 296.024 120.404 296.144 119.756 296.144ZM128.596 296.144C127.78 296.144 127.048 295.946 126.4 295.55C125.752 295.154 125.242 294.614 124.87 293.93C124.498 293.246 124.312 292.472 124.312 291.608C124.312 290.744 124.498 289.97 124.87 289.286C125.242 288.602 125.752 288.062 126.4 287.666C127.048 287.27 127.78 287.072 128.596 287.072C129.4 287.072 130.12 287.27 130.756 287.666C131.404 288.062 131.914 288.602 132.286 289.286C132.658 289.97 132.844 290.744 132.844 291.608C132.844 292.472 132.658 293.246 132.286 293.93C131.914 294.614 131.404 295.154 130.756 295.55C130.12 295.946 129.4 296.144 128.596 296.144ZM128.578 294.992C129.154 294.992 129.664 294.848 130.108 294.56C130.552 294.26 130.9 293.852 131.152 293.336C131.416 292.82 131.548 292.244 131.548 291.608C131.548 290.96 131.416 290.384 131.152 289.88C130.9 289.364 130.552 288.962 130.108 288.674C129.664 288.374 129.154 288.224 128.578 288.224C128.002 288.224 127.492 288.374 127.048 288.674C126.604 288.962 126.25 289.364 125.986 289.88C125.734 290.384 125.608 290.96 125.608 291.608C125.608 292.244 125.734 292.82 125.986 293.336C126.25 293.852 126.604 294.26 127.048 294.56C127.492 294.848 128.002 294.992 128.578 294.992ZM135.15 296V287.216H136.464V288.638C136.8 288.11 137.202 287.72 137.67 287.468C138.138 287.204 138.666 287.072 139.254 287.072C139.89 287.072 140.442 287.21 140.91 287.486C141.39 287.75 141.762 288.128 142.026 288.62C142.302 289.1 142.44 289.664 142.44 290.312V296H141.126V290.69C141.126 289.91 140.91 289.298 140.478 288.854C140.058 288.398 139.488 288.17 138.768 288.17C138.288 288.17 137.85 288.284 137.454 288.512C137.058 288.74 136.728 289.076 136.464 289.52V296H135.15ZM145.934 296V288.296H143.972V287.216H145.934V285.38C145.934 284.516 146.162 283.85 146.618 283.382C147.074 282.914 147.722 282.68 148.562 282.68C148.802 282.68 149.018 282.692 149.21 282.716C149.414 282.74 149.594 282.782 149.75 282.842V284.03C149.558 283.97 149.384 283.928 149.228 283.904C149.072 283.88 148.892 283.868 148.688 283.868C148.184 283.868 147.818 283.994 147.59 284.246C147.362 284.486 147.248 284.87 147.248 285.398V287.216H149.75V288.296H147.248V296H145.934ZM151.462 296V287.216H152.776V296H151.462ZM152.128 285.038C151.864 285.038 151.636 284.948 151.444 284.768C151.264 284.576 151.174 284.354 151.174 284.102C151.174 283.85 151.264 283.634 151.444 283.454C151.636 283.262 151.864 283.166 152.128 283.166C152.392 283.166 152.614 283.262 152.794 283.454C152.986 283.634 153.082 283.85 153.082 284.102C153.082 284.354 152.986 284.576 152.794 284.768C152.614 284.948 152.392 285.038 152.128 285.038ZM155.47 296V287.216H156.784V289.016C157.012 288.404 157.336 287.93 157.756 287.594C158.188 287.246 158.68 287.072 159.232 287.072C159.388 287.072 159.532 287.084 159.664 287.108C159.796 287.12 159.928 287.15 160.06 287.198V288.386C159.916 288.338 159.76 288.302 159.592 288.278C159.436 288.242 159.286 288.224 159.142 288.224C158.602 288.224 158.128 288.38 157.72 288.692C157.324 289.004 157.012 289.442 156.784 290.006V296H155.47ZM161.798 296V287.216H163.112V288.584C163.448 288.08 163.832 287.702 164.264 287.45C164.696 287.198 165.182 287.072 165.722 287.072C166.346 287.072 166.892 287.228 167.36 287.54C167.828 287.84 168.182 288.254 168.422 288.782C168.77 288.218 169.184 287.792 169.664 287.504C170.156 287.216 170.72 287.072 171.356 287.072C171.944 287.072 172.46 287.21 172.904 287.486C173.36 287.762 173.714 288.146 173.966 288.638C174.218 289.118 174.344 289.682 174.344 290.33V296H173.03V290.654C173.03 289.886 172.838 289.28 172.454 288.836C172.07 288.392 171.542 288.17 170.87 288.17C170.414 288.17 170 288.284 169.628 288.512C169.268 288.74 168.95 289.088 168.674 289.556C168.698 289.676 168.716 289.802 168.728 289.934C168.74 290.066 168.746 290.198 168.746 290.33V296H167.432V290.654C167.432 289.886 167.234 289.28 166.838 288.836C166.454 288.392 165.926 288.17 165.254 288.17C164.354 288.17 163.64 288.602 163.112 289.466V296H161.798ZM180.963 296.18C180.147 296.18 179.409 295.982 178.749 295.586C178.089 295.178 177.567 294.632 177.183 293.948C176.799 293.252 176.607 292.472 176.607 291.608C176.607 290.744 176.787 289.97 177.147 289.286C177.519 288.602 178.017 288.062 178.641 287.666C179.265 287.27 179.961 287.072 180.729 287.072C181.509 287.072 182.199 287.27 182.799 287.666C183.411 288.05 183.891 288.578 184.239 289.25C184.599 289.91 184.779 290.66 184.779 291.5V291.896H177.885C177.933 292.496 178.095 293.036 178.371 293.516C178.659 293.984 179.031 294.356 179.487 294.632C179.955 294.896 180.465 295.028 181.017 295.028C181.473 295.028 181.911 294.95 182.331 294.794C182.763 294.626 183.129 294.404 183.429 294.128L184.257 295.01C183.753 295.406 183.231 295.7 182.691 295.892C182.151 296.084 181.575 296.18 180.963 296.18ZM177.921 290.96H183.483C183.423 290.432 183.261 289.964 182.997 289.556C182.745 289.136 182.421 288.806 182.025 288.566C181.641 288.326 181.209 288.206 180.729 288.206C180.249 288.206 179.811 288.326 179.415 288.566C179.019 288.794 178.689 289.118 178.425 289.538C178.173 289.946 178.005 290.42 177.921 290.96ZM186.411 296V294.956L191.469 288.404L186.465 288.422V287.216H193.071V288.242L187.995 294.83L193.143 294.812V296H186.411ZM203.446 296.18C202.63 296.18 201.892 295.982 201.232 295.586C200.572 295.178 200.05 294.632 199.666 293.948C199.282 293.252 199.09 292.472 199.09 291.608C199.09 290.744 199.27 289.97 199.63 289.286C200.002 288.602 200.5 288.062 201.124 287.666C201.748 287.27 202.444 287.072 203.212 287.072C203.992 287.072 204.682 287.27 205.282 287.666C205.894 288.05 206.374 288.578 206.722 289.25C207.082 289.91 207.262 290.66 207.262 291.5V291.896H200.368C200.416 292.496 200.578 293.036 200.854 293.516C201.142 293.984 201.514 294.356 201.97 294.632C202.438 294.896 202.948 295.028 203.5 295.028C203.956 295.028 204.394 294.95 204.814 294.794C205.246 294.626 205.612 294.404 205.912 294.128L206.74 295.01C206.236 295.406 205.714 295.7 205.174 295.892C204.634 296.084 204.058 296.18 203.446 296.18ZM200.404 290.96H205.966C205.906 290.432 205.744 289.964 205.48 289.556C205.228 289.136 204.904 288.806 204.508 288.566C204.124 288.326 203.692 288.206 203.212 288.206C202.732 288.206 202.294 288.326 201.898 288.566C201.502 288.794 201.172 289.118 200.908 289.538C200.656 289.946 200.488 290.42 200.404 290.96ZM209.505 296V287.216H210.819V288.638C211.155 288.11 211.557 287.72 212.025 287.468C212.493 287.204 213.021 287.072 213.609 287.072C214.245 287.072 214.797 287.21 215.265 287.486C215.745 287.75 216.117 288.128 216.381 288.62C216.657 289.1 216.795 289.664 216.795 290.312V296H215.481V290.69C215.481 289.91 215.265 289.298 214.833 288.854C214.413 288.398 213.843 288.17 213.123 288.17C212.643 288.17 212.205 288.284 211.809 288.512C211.413 288.74 211.083 289.076 210.819 289.52V296H209.505ZM226.77 296.144C226.146 296.144 225.594 296.006 225.114 295.73C224.634 295.454 224.256 295.07 223.98 294.578C223.716 294.086 223.584 293.522 223.584 292.886V287.216H224.916V292.508C224.916 293.288 225.126 293.906 225.546 294.362C225.966 294.818 226.536 295.046 227.256 295.046C227.748 295.046 228.186 294.932 228.57 294.704C228.966 294.476 229.296 294.146 229.56 293.714V287.216H230.874V296H229.56V294.578C229.224 295.094 228.822 295.484 228.354 295.748C227.898 296.012 227.37 296.144 226.77 296.144ZM233.57 296V287.216H234.884V288.638C235.22 288.11 235.622 287.72 236.09 287.468C236.558 287.204 237.086 287.072 237.674 287.072C238.31 287.072 238.862 287.21 239.33 287.486C239.81 287.75 240.182 288.128 240.446 288.62C240.722 289.1 240.86 289.664 240.86 290.312V296H239.546V290.69C239.546 289.91 239.33 289.298 238.898 288.854C238.478 288.398 237.908 288.17 237.188 288.17C236.708 288.17 236.27 288.284 235.874 288.512C235.478 288.74 235.148 289.076 234.884 289.52V296H233.57ZM251.645 296.144C250.829 296.144 250.091 295.946 249.431 295.55C248.783 295.142 248.267 294.596 247.883 293.912C247.499 293.216 247.307 292.448 247.307 291.608C247.307 290.756 247.499 289.988 247.883 289.304C248.267 288.62 248.783 288.08 249.431 287.684C250.091 287.276 250.829 287.072 251.645 287.072C252.293 287.072 252.911 287.192 253.499 287.432C254.087 287.672 254.597 288.008 255.029 288.44L254.183 289.358C253.871 289.01 253.493 288.74 253.049 288.548C252.605 288.356 252.155 288.26 251.699 288.26C251.123 288.26 250.601 288.41 250.133 288.71C249.677 289.01 249.311 289.412 249.035 289.916C248.759 290.42 248.621 290.984 248.621 291.608C248.621 292.232 248.759 292.796 249.035 293.3C249.311 293.804 249.677 294.206 250.133 294.506C250.601 294.806 251.123 294.956 251.699 294.956C252.155 294.956 252.605 294.86 253.049 294.668C253.493 294.464 253.871 294.194 254.183 293.858L255.029 294.776C254.597 295.208 254.087 295.544 253.499 295.784C252.911 296.024 252.293 296.144 251.645 296.144ZM256.861 296V283.004L258.175 282.734V296H256.861ZM260.851 296V287.216H262.165V296H260.851ZM261.517 285.038C261.253 285.038 261.025 284.948 260.833 284.768C260.653 284.576 260.563 284.354 260.563 284.102C260.563 283.85 260.653 283.634 260.833 283.454C261.025 283.262 261.253 283.166 261.517 283.166C261.781 283.166 262.003 283.262 262.183 283.454C262.375 283.634 262.471 283.85 262.471 284.102C262.471 284.354 262.375 284.576 262.183 284.768C262.003 284.948 261.781 285.038 261.517 285.038ZM268.801 296.144C267.985 296.144 267.247 295.946 266.587 295.55C265.939 295.142 265.423 294.596 265.039 293.912C264.655 293.216 264.463 292.448 264.463 291.608C264.463 290.756 264.655 289.988 265.039 289.304C265.423 288.62 265.939 288.08 266.587 287.684C267.247 287.276 267.985 287.072 268.801 287.072C269.449 287.072 270.067 287.192 270.655 287.432C271.243 287.672 271.753 288.008 272.185 288.44L271.339 289.358C271.027 289.01 270.649 288.74 270.205 288.548C269.761 288.356 269.311 288.26 268.855 288.26C268.279 288.26 267.757 288.41 267.289 288.71C266.833 289.01 266.467 289.412 266.191 289.916C265.915 290.42 265.777 290.984 265.777 291.608C265.777 292.232 265.915 292.796 266.191 293.3C266.467 293.804 266.833 294.206 267.289 294.506C267.757 294.806 268.279 294.956 268.855 294.956C269.311 294.956 269.761 294.86 270.205 294.668C270.649 294.464 271.027 294.194 271.339 293.858L272.185 294.776C271.753 295.208 271.243 295.544 270.655 295.784C270.067 296.024 269.449 296.144 268.801 296.144Z" fill="#777E90"/>
<path d="M95.7218 240.088C98.3692 240.088 100.136 239.472 101.024 238.24C101.911 237.008 102.355 235.585 102.355 233.972H98.5708C98.5708 235.365 98.3215 236.311 97.8228 236.81C97.3242 237.301 96.6128 237.547 95.6888 237.547C94.7428 237.547 93.9875 237.268 93.4228 236.711C92.8655 236.154 92.5868 234.764 92.5868 232.542C92.5868 230.335 92.8655 228.956 93.4228 228.406C93.9802 227.849 94.7355 227.57 95.6888 227.57C96.6202 227.57 97.3315 227.808 97.8228 228.285C98.3215 228.762 98.5708 229.715 98.5708 231.145H102.355C102.355 229.488 101.911 228.054 101.024 226.844C100.136 225.634 98.3655 225.029 95.7108 225.029C93.0635 225.029 91.2485 225.663 90.2658 226.932C89.2905 228.201 88.8028 230.071 88.8028 232.542C88.8028 235.006 89.2905 236.88 90.2658 238.163C91.2485 239.446 93.0672 240.088 95.7218 240.088ZM110.532 240.11C112.915 240.11 114.613 239.534 115.625 238.383C116.644 237.224 117.154 235.571 117.154 233.422C117.154 231.281 116.644 229.645 115.625 228.516C114.613 227.379 112.915 226.811 110.532 226.811C108.141 226.811 106.436 227.379 105.417 228.516C104.398 229.645 103.888 231.281 103.888 233.422C103.888 235.571 104.398 237.224 105.417 238.383C106.436 239.534 108.141 240.11 110.532 240.11ZM110.532 237.602C109.674 237.602 108.97 237.331 108.42 236.788C107.87 236.245 107.595 235.131 107.595 233.444C107.595 231.765 107.87 230.657 108.42 230.122C108.97 229.587 109.674 229.319 110.532 229.319C111.383 229.319 112.083 229.587 112.633 230.122C113.183 230.657 113.458 231.765 113.458 233.444C113.458 235.131 113.183 236.245 112.633 236.788C112.083 237.331 111.383 237.602 110.532 237.602ZM118.957 240H122.653V229.165L121.817 226.965H118.957V240ZM127.46 240H131.156V233.037C131.156 231.189 130.833 229.697 130.188 228.56C129.542 227.416 128.38 226.844 126.701 226.844C124.926 226.844 123.489 227.405 122.389 228.527C121.289 229.642 120.739 230.775 120.739 231.926L122.532 232.762C122.532 231.765 122.799 230.954 123.335 230.331C123.877 229.7 124.534 229.385 125.304 229.385C126.037 229.385 126.58 229.642 126.932 230.155C127.284 230.668 127.46 231.647 127.46 233.092V240ZM134.891 240H138.587V229.484H142.096V226.965H138.576L138.587 226.536C138.587 225.949 138.836 225.557 139.335 225.359C139.834 225.161 140.659 225.062 141.81 225.062H142.173V222.631H141.722C139.529 222.631 137.843 222.932 136.662 223.533C135.481 224.134 134.891 225.132 134.891 226.525L134.913 226.965H132.229V229.484H134.891V240ZM144.142 240H147.849V226.954H144.142V240ZM144.142 223.038V225.623H147.849V223.038H144.142ZM158.597 233.389H162.293C162.293 231.145 161.985 229.495 161.369 228.439C160.753 227.376 159.584 226.844 157.86 226.844C156.269 226.844 154.982 227.266 153.999 228.109C153.017 228.945 152.525 229.979 152.525 231.211L153.944 232.058C153.944 231.361 154.172 230.745 154.626 230.21C155.081 229.667 155.697 229.396 156.474 229.396C157.142 229.396 157.662 229.653 158.036 230.166C158.41 230.672 158.597 231.746 158.597 233.389ZM150.259 240H153.955V229.22L153.119 226.965H150.259V240ZM164.461 240H168.168V228.923L167.332 226.965H164.461V240ZM172.205 240H175.901V232.388C175.901 230.899 175.615 229.605 175.043 228.505C174.471 227.405 173.334 226.855 171.633 226.855C170.166 226.855 168.89 227.405 167.805 228.505C166.719 229.605 166.177 230.775 166.177 232.014L168.135 232.795C168.135 231.658 168.344 230.808 168.762 230.243C169.187 229.678 169.733 229.396 170.401 229.396C171.031 229.396 171.49 229.645 171.776 230.144C172.062 230.643 172.205 231.49 172.205 232.685V240ZM179.905 240H183.601V232.388C183.601 230.892 183.318 229.598 182.754 228.505C182.196 227.405 181.071 226.855 179.377 226.855C177.903 226.855 176.623 227.416 175.538 228.538C174.452 229.653 173.91 230.811 173.91 232.014L175.879 232.795C175.879 231.658 176.088 230.808 176.506 230.243C176.924 229.678 177.466 229.396 178.134 229.396C178.772 229.396 179.226 229.645 179.498 230.144C179.769 230.643 179.905 231.49 179.905 232.685V240ZM192.098 240.132V237.745C191.152 237.745 190.4 237.452 189.843 236.865C189.293 236.278 189.018 235.149 189.018 233.477C189.018 231.768 189.297 230.632 189.854 230.067C190.411 229.502 191.137 229.22 192.032 229.22C192.941 229.22 193.649 229.48 194.155 230.001C194.668 230.522 194.925 231.409 194.925 232.663L195.057 232.333H188.677V234.566H198.511C198.562 234.243 198.588 233.877 198.588 233.466C198.588 231.405 198.111 229.785 197.158 228.604C196.212 227.423 194.503 226.833 192.032 226.833C189.619 226.833 187.918 227.416 186.928 228.582C185.938 229.741 185.443 231.372 185.443 233.477C185.443 235.53 185.934 237.155 186.917 238.35C187.907 239.538 189.634 240.132 192.098 240.132ZM192.098 237.745V240.132C193.403 240.132 194.434 240.007 195.189 239.758C195.952 239.501 196.601 239.109 197.136 238.581C197.679 238.053 198.031 237.36 198.192 236.502L194.881 235.567C194.727 236.036 194.54 236.443 194.32 236.788C194.107 237.133 193.821 237.378 193.462 237.525C193.103 237.672 192.648 237.745 192.098 237.745ZM208.742 233.389H212.438C212.438 231.145 212.13 229.495 211.514 228.439C210.898 227.376 209.728 226.844 208.005 226.844C206.414 226.844 205.127 227.266 204.144 228.109C203.161 228.945 202.67 229.979 202.67 231.211L204.089 232.058C204.089 231.361 204.316 230.745 204.771 230.21C205.226 229.667 205.842 229.396 206.619 229.396C207.286 229.396 207.807 229.653 208.181 230.166C208.555 230.672 208.742 231.746 208.742 233.389ZM200.404 240H204.1V229.22L203.264 226.965H200.404V240Z" fill="#204945"/>
<g clip-path="url(#clip0_161_53)">
<rect x="94" width="115" height="115" rx="25" fill="#FDAD00"/>
<path d="M128.344 160.64V163.44H132.104V165.216H128.344V168.176H132.584V170H126.104V158.816H132.584V160.64H128.344ZM131.016 156.512L127.336 158.192V156.592L131.016 154.688V156.512ZM137.228 162.976V167.264C137.228 167.563 137.297 167.781 137.436 167.92C137.585 168.048 137.83 168.112 138.172 168.112H139.212V170H137.804C135.916 170 134.972 169.083 134.972 167.248V162.976H133.916V161.136H134.972V158.944H137.228V161.136H139.212V162.976H137.228ZM140.247 165.536C140.247 164.64 140.423 163.845 140.775 163.152C141.137 162.459 141.623 161.925 142.231 161.552C142.849 161.179 143.537 160.992 144.295 160.992C144.956 160.992 145.532 161.125 146.023 161.392C146.524 161.659 146.924 161.995 147.223 162.4V161.136H149.479V170H147.223V168.704C146.935 169.12 146.535 169.467 146.023 169.744C145.521 170.011 144.94 170.144 144.279 170.144C143.532 170.144 142.849 169.952 142.231 169.568C141.623 169.184 141.137 168.645 140.775 167.952C140.423 167.248 140.247 166.443 140.247 165.536ZM147.223 165.568C147.223 165.024 147.116 164.56 146.903 164.176C146.689 163.781 146.401 163.483 146.039 163.28C145.676 163.067 145.287 162.96 144.871 162.96C144.455 162.96 144.071 163.061 143.719 163.264C143.367 163.467 143.079 163.765 142.855 164.16C142.641 164.544 142.535 165.003 142.535 165.536C142.535 166.069 142.641 166.539 142.855 166.944C143.079 167.339 143.367 167.643 143.719 167.856C144.081 168.069 144.465 168.176 144.871 168.176C145.287 168.176 145.676 168.075 146.039 167.872C146.401 167.659 146.689 167.36 146.903 166.976C147.116 166.581 147.223 166.112 147.223 165.568ZM153.907 162.416C154.195 162.011 154.589 161.675 155.091 161.408C155.603 161.131 156.184 160.992 156.835 160.992C157.592 160.992 158.275 161.179 158.883 161.552C159.501 161.925 159.987 162.459 160.339 163.152C160.701 163.835 160.883 164.629 160.883 165.536C160.883 166.443 160.701 167.248 160.339 167.952C159.987 168.645 159.501 169.184 158.883 169.568C158.275 169.952 157.592 170.144 156.835 170.144C156.184 170.144 155.608 170.011 155.107 169.744C154.616 169.477 154.216 169.141 153.907 168.736V174.224H151.667V161.136H153.907V162.416ZM158.595 165.536C158.595 165.003 158.483 164.544 158.259 164.16C158.045 163.765 157.757 163.467 157.395 163.264C157.043 163.061 156.659 162.96 156.243 162.96C155.837 162.96 155.453 163.067 155.091 163.28C154.739 163.483 154.451 163.781 154.227 164.176C154.013 164.571 153.907 165.035 153.907 165.568C153.907 166.101 154.013 166.565 154.227 166.96C154.451 167.355 154.739 167.659 155.091 167.872C155.453 168.075 155.837 168.176 156.243 168.176C156.659 168.176 157.043 168.069 157.395 167.856C157.757 167.643 158.045 167.339 158.259 166.944C158.483 166.549 158.595 166.08 158.595 165.536ZM170.75 165.376C170.75 165.696 170.729 165.984 170.686 166.24H164.206C164.26 166.88 164.484 167.381 164.878 167.744C165.273 168.107 165.758 168.288 166.334 168.288C167.166 168.288 167.758 167.931 168.11 167.216H170.526C170.27 168.069 169.78 168.773 169.054 169.328C168.329 169.872 167.438 170.144 166.382 170.144C165.529 170.144 164.761 169.957 164.078 169.584C163.406 169.2 162.878 168.661 162.494 167.968C162.121 167.275 161.934 166.475 161.934 165.568C161.934 164.651 162.121 163.845 162.494 163.152C162.868 162.459 163.39 161.925 164.062 161.552C164.734 161.179 165.508 160.992 166.382 160.992C167.225 160.992 167.977 161.173 168.638 161.536C169.31 161.899 169.828 162.416 170.19 163.088C170.564 163.749 170.75 164.512 170.75 165.376ZM168.43 164.736C168.42 164.16 168.212 163.701 167.806 163.36C167.401 163.008 166.905 162.832 166.318 162.832C165.764 162.832 165.294 163.003 164.91 163.344C164.537 163.675 164.308 164.139 164.222 164.736H168.43ZM176.646 167.472C177.67 166.619 178.486 165.909 179.094 165.344C179.702 164.768 180.208 164.171 180.614 163.552C181.019 162.933 181.222 162.325 181.222 161.728C181.222 161.184 181.094 160.757 180.838 160.448C180.582 160.139 180.187 159.984 179.654 159.984C179.12 159.984 178.71 160.165 178.422 160.528C178.134 160.88 177.984 161.365 177.974 161.984H175.798C175.84 160.704 176.219 159.733 176.934 159.072C177.659 158.411 178.576 158.08 179.686 158.08C180.902 158.08 181.835 158.405 182.486 159.056C183.136 159.696 183.462 160.544 183.462 161.6C183.462 162.432 183.238 163.227 182.79 163.984C182.342 164.741 181.83 165.403 181.254 165.968C180.678 166.523 179.926 167.195 178.998 167.984H183.718V169.84H175.814V168.176L176.646 167.472Z" fill="#777E91"/>
<path d="M151 85.1772C167.57 85.1772 181 71.7079 181 55.0886C181 38.4694 167.57 25 151 25C134.43 25 121 38.4694 121 55.0886C121 71.7079 134.43 85.1772 151 85.1772ZM164.242 49.5645L149.242 64.6088C148.141 65.7136 146.359 65.7136 145.27 64.6088L137.77 57.0867C136.668 55.9819 136.668 54.1953 137.77 53.1023C138.871 52.0092 140.652 51.9975 141.742 53.1023L147.25 58.6264L160.258 45.5684C161.359 44.4636 163.141 44.4636 164.23 45.5684C165.32 46.6732 165.332 48.4597 164.23 49.5528L164.242 49.5645Z" fill="white"/>
</g>
<defs>
<clipPath id="clip0_161_53">
<rect width="115" height="174" fill="white" transform="translate(94)"/>
</clipPath>
</defs>
</svg>
